<svg width="151" height="196" viewBox="0 0 151 196" fill="none" xmlns="http://www.w3.org/2000/svg">
<circle cx="75.4993" cy="75.1887" r="74.1477" fill="url(#paint0_linear_10276_44932)"/>
<g filter="url(#filter0_d_10276_44932)">
<rect x="38" y="13.5303" width="73.2955" height="123.58" rx="8.52273" fill="#6559FF"/>
<rect x="43.9688" y="91.9395" width="60.5114" height="24.7159" rx="1.70455" fill="#C2BDFF"/>
<path d="M81.5015 62.1979L77.5924 60.3245C77.1037 60.0903 76.5271 60.2776 76.2828 60.746C76.0385 61.2144 76.2339 61.767 76.7226 62.0012L77.7585 62.4977L69.4613 76.6238C69.1975 77.0734 69.3636 77.6448 69.8327 77.8978C69.9793 77.9821 70.1454 78.0195 70.3116 78.0195C70.6536 78.0195 70.9859 77.8509 71.1618 77.5418L79.4981 63.3314L80.622 63.8653C80.7588 63.9309 80.9151 63.9684 81.0617 63.9684C81.4233 63.9684 81.7654 63.781 81.9413 63.4532C82.1856 62.9942 81.9902 62.4321 81.5015 62.1979Z" fill="#493ECF"/>
<path d="M68.363 74.2736C70.8258 74.2736 73.0247 75.3696 74.4613 77.0838H79.1132L80.6964 71.0043C80.9114 70.1706 81.6932 69.5898 82.5923 69.5898H94.7498V80.8308H63.4766V75.9316C64.8154 74.9012 66.5062 74.2736 68.363 74.2736Z" fill="#FFF06B"/>
<path d="M90.137 78.0192C87.1074 78.0192 78.8004 78.0192 74.9011 78.0192C73.7479 78.0192 72.7119 77.4853 71.9203 76.6797C71.031 75.771 69.7703 75.209 68.363 75.209C66.3596 75.209 64.6395 76.3705 63.887 78.0192H63.4766V80.8294H94.7498V75.3027C93.5282 75.5368 92.4825 76.2207 91.7788 77.1574C91.3879 77.6726 90.8015 78.0192 90.137 78.0192Z" fill="#FFF06B"/>
<path d="M63.4787 77.083H60.5469V80.83H63.4787V77.083Z" fill="#C2BDFF"/>
<path d="M94.75 60.2217H97.1834C98.0532 60.2217 98.8253 60.7744 99.0598 61.58L102.568 73.3361H94.75V60.2217Z" fill="#C2BDFF"/>
<path d="M94.752 80.8301H102.57V73.3361H94.752V80.8301Z" fill="#FFF06B"/>
<path d="M94.7469 47.1073V69.5892H91.815V48.0441C91.815 47.0137 90.9355 46.1706 89.8604 46.1706H85.2574C80.5567 46.1706 76.5302 49.3742 75.6507 53.7957L70.3147 80.8301H67.3828L72.5233 52.6622C73.5104 47.2853 78.3773 43.3604 84.0749 43.3604H90.8377C92.9975 43.3604 94.7469 45.0371 94.7469 47.1073Z" fill="#FFF06B"/>
<path d="M87.9106 65.8421V62.0952C87.9106 61.0647 88.7902 60.2217 89.8652 60.2217C90.9402 60.2217 91.8198 61.0647 91.8198 62.0952V69.5891H84.0015C82.9264 69.5891 82.0469 68.7461 82.0469 67.7156C82.0469 66.6852 82.9264 65.8421 84.0015 65.8421H87.9106Z" fill="#C2BDFF"/>
<path d="M57.6126 79.8921V54.1317C57.6126 53.3542 58.2674 52.7266 59.0786 52.7266C59.8897 52.7266 60.5445 53.3542 60.5445 54.1317V80.8289C60.5445 82.8991 58.7952 84.5759 56.6353 84.5759H48.9503C48.1392 84.5759 47.4844 83.9482 47.4844 83.1707C47.4844 82.3932 48.1392 81.7656 48.9503 81.7656H55.6581C56.7331 81.7656 57.6126 80.9226 57.6126 79.8921Z" fill="#FFF06B"/>
<path d="M63.4737 80.8301H67.3828V44.2126C67.3828 43.7419 67.0012 43.3603 66.5305 43.3603H64.3259C63.8552 43.3603 63.4737 43.7419 63.4737 44.2126L63.4737 80.8301Z" fill="#C2BDFF"/>
<path d="M102.267 78.0192C101.114 78.0192 100.068 77.4853 99.2768 76.6797C98.3875 75.771 97.1268 75.209 95.7195 75.209C95.3872 75.209 95.0549 75.2465 94.7422 75.3027V80.8294H102.56V78.0192H102.258H102.267Z" fill="#FFF06B"/>
<path d="M95.7302 86.4504C98.4289 86.4504 100.617 84.3535 100.617 81.7667C100.617 79.18 98.4289 77.083 95.7302 77.083C93.0315 77.083 90.8438 79.18 90.8438 81.7667C90.8438 84.3535 93.0315 86.4504 95.7302 86.4504Z" fill="#211C53"/>
<path d="M68.363 86.4504C71.0617 86.4504 73.2494 84.3535 73.2494 81.7667C73.2494 79.18 71.0617 77.083 68.363 77.083C65.6643 77.083 63.4766 79.18 63.4766 81.7667C63.4766 84.3535 65.6643 86.4504 68.363 86.4504Z" fill="#211C53"/>
<path d="M95.728 83.6415C96.8075 83.6415 97.6826 82.8027 97.6826 81.768C97.6826 80.7333 96.8075 79.8945 95.728 79.8945C94.6485 79.8945 93.7734 80.7333 93.7734 81.768C93.7734 82.8027 94.6485 83.6415 95.728 83.6415Z" fill="#C2BDFF"/>
<path d="M95.728 83.6415C96.8075 83.6415 97.6826 82.8027 97.6826 81.768C97.6826 80.7333 96.8075 79.8945 95.728 79.8945C94.6485 79.8945 93.7734 80.7333 93.7734 81.768C93.7734 82.8027 94.6485 83.6415 95.728 83.6415Z" fill="#C2BDFF"/>
<path d="M68.3608 83.6415C69.4403 83.6415 70.3154 82.8027 70.3154 81.768C70.3154 80.7333 69.4403 79.8945 68.3608 79.8945C67.2813 79.8945 66.4062 80.7333 66.4062 81.768C66.4062 82.8027 67.2813 83.6415 68.3608 83.6415Z" fill="#C2BDFF"/>
<path d="M92.792 72.4008H89.8601C89.3226 72.4008 88.8828 71.9793 88.8828 71.4641C88.8828 70.9489 89.3226 70.5273 89.8601 70.5273H92.792C93.3295 70.5273 93.7693 70.9489 93.7693 71.4641C93.7693 71.9793 93.3295 72.4008 92.792 72.4008Z" fill="white"/>
<circle cx="67.5604" cy="128.161" r="2.13068" fill="white"/>
<circle cx="74.3729" cy="128.161" r="1.70455" stroke="white" stroke-width="0.852273"/>
<circle cx="81.1932" cy="128.161" r="1.70455" stroke="white" stroke-width="0.852273"/>
<rect x="88.6719" y="22.9053" width="15.4162" height="6.81818" rx="1.70455" fill="white"/>
<rect x="56.7578" y="99.6104" width="35.7955" height="3.40909" rx="1.70455" fill="#6559FF" fill-opacity="0.58"/>
<rect x="49.9375" y="105.576" width="49.4318" height="3.40909" rx="1.70455" fill="#6559FF" fill-opacity="0.58"/>
</g>
<circle cx="75.4993" cy="180.795" r="14.265" fill="#6559FF"/>
<path d="M79.0401 184.796H72.0541V183.326L74.5601 180.792C75.0641 180.269 75.4701 179.835 75.7781 179.49C76.0861 179.135 76.3101 178.818 76.4501 178.538C76.5901 178.249 76.6601 177.941 76.6601 177.614C76.6601 177.213 76.5481 176.914 76.3241 176.718C76.1095 176.522 75.8155 176.424 75.4421 176.424C75.0595 176.424 74.6861 176.513 74.3221 176.69C73.9581 176.867 73.5755 177.119 73.1741 177.446L72.0261 176.088C72.3155 175.836 72.6188 175.603 72.9361 175.388C73.2628 175.173 73.6361 175.001 74.0561 174.87C74.4855 174.73 74.9988 174.66 75.5961 174.66C76.2495 174.66 76.8095 174.781 77.2761 175.024C77.7521 175.257 78.1161 175.579 78.3681 175.99C78.6295 176.391 78.7601 176.849 78.7601 177.362C78.7601 177.913 78.6481 178.417 78.4241 178.874C78.2095 179.331 77.8921 179.784 77.4721 180.232C77.0615 180.68 76.5621 181.175 75.9741 181.716L74.6861 182.92V183.018H79.0401V184.796Z" fill="white"/>
<defs>
<filter id="filter0_d_10276_44932" x="33.7386" y="11.8257" width="81.8196" height="132.102" filterUnits="userSpaceOnUse" color-interpolation-filters="sRGB">
<feFlood flood-opacity="0" result="BackgroundImageFix"/>
<feColorMatrix in="SourceAlpha" type="matrix" values="0 0 0 0 0 0 0 0 0 0 0 0 0 0 0 0 0 0 127 0" result="hardAlpha"/>
<feOffset dy="2.55682"/>
<feGaussianBlur stdDeviation="2.13068"/>
<feComposite in2="hardAlpha" operator="out"/>
<feColorMatrix type="matrix" values="0 0 0 0 0.175444 0 0 0 0 0.107708 0 0 0 0 0.5875 0 0 0 0.15 0"/>
<feBlend mode="normal" in2="BackgroundImageFix" result="effect1_dropShadow_10276_44932"/>
<feBlend mode="normal" in="SourceGraphic" in2="effect1_dropShadow_10276_44932" result="shape"/>
</filter>
<linearGradient id="paint0_linear_10276_44932" x1="-8.49205" y1="1.04102" x2="149.647" y2="141.441" gradientUnits="userSpaceOnUse">
<stop stop-color="#00BAFF" stop-opacity="0.29"/>
<stop offset="1" stop-color="#00BAFF" stop-opacity="0"/>
</linearGradient>
</defs>
</svg>
