<svg width="151" height="196" viewBox="0 0 151 196" fill="none" xmlns="http://www.w3.org/2000/svg">
<circle cx="75.4993" cy="75.1887" r="74.1477" fill="url(#paint0_linear_10276_45001)"/>
<g filter="url(#filter0_d_10276_45001)">
<path d="M11.0047 67.9714C11.0021 65.1456 13.292 62.8533 16.1178 62.853L87.6943 62.8453C90.5169 62.845 92.8059 65.1316 92.8085 67.9542L92.8518 114.537C92.8544 117.363 90.5645 119.655 87.7387 119.656L16.1621 119.663C13.3396 119.664 11.0506 117.377 11.048 114.555L11.0047 67.9714Z" fill="white"/>
<path d="M17.8237 71.3061C17.8261 70.8695 18.182 70.5176 18.6186 70.5201L27.8795 70.5723C28.3161 70.5748 28.668 70.9307 28.6656 71.3673V71.3673C28.6631 71.8038 28.3072 72.1557 27.8706 72.1533L18.6097 72.101C18.1731 72.0986 17.8212 71.7427 17.8237 71.3061V71.3061Z" fill="#EAEDF2"/>
<path d="M28.6641 99.1581C28.6641 98.7083 29.0286 98.3438 29.4784 98.3438H34.0008C34.4505 98.3438 34.8151 98.7083 34.8151 99.1581V110.646H28.6641V99.1581Z" fill="#00D1FF"/>
<path d="M47.6328 93.5194C47.6328 93.0697 47.9974 92.7051 48.4471 92.7051H53.4821C53.9318 92.7051 54.2964 93.0697 54.2964 93.5194V110.646H47.6328V93.5194Z" fill="#00D1FF"/>
<path d="M37.8906 88.3934C37.8906 87.9437 38.2552 87.5791 38.7049 87.5791H43.7399C44.1897 87.5791 44.5542 87.9437 44.5542 88.3934V110.645H37.8906V88.3934Z" fill="#00D1FF"/>
<path d="M57.375 88.3934C57.375 87.9437 57.7396 87.5791 58.1893 87.5791H63.2243C63.674 87.5791 64.0386 87.9437 64.0386 88.3934V110.645H57.375V88.3934Z" fill="#00D1FF"/>
<path d="M67.1172 85.3172C67.1172 84.8675 67.4818 84.5029 67.9315 84.5029H72.9665C73.4162 84.5029 73.7808 84.8675 73.7808 85.3172V110.645H67.1172V85.3172Z" fill="#00D1FF"/>
<path d="M76.8594 82.7547C76.8594 82.305 77.224 81.9404 77.6737 81.9404H82.7087C83.1584 81.9404 83.523 82.305 83.523 82.7547V110.645H76.8594V82.7547Z" fill="#00D1FF"/>
<rect x="17.8125" y="109.72" width="3.07551" height="1.70455" rx="0.845227" fill="#EAEDF2"/>
<rect x="17.8125" y="102.05" width="3.07551" height="1.70455" rx="0.845227" fill="#EAEDF2"/>
<rect x="17.8125" y="94.3789" width="3.07551" height="1.70455" rx="0.845227" fill="#EAEDF2"/>
<rect x="17.8125" y="86.709" width="3.07551" height="1.70455" rx="0.845227" fill="#EAEDF2"/>
<rect x="17.8125" y="79.0381" width="3.07551" height="1.70455" rx="0.845227" fill="#EAEDF2"/>
</g>
<g filter="url(#filter1_d_10276_45001)">
<path d="M59.4579 34.8347C59.4553 32.0089 61.7451 29.7166 64.571 29.7163L136.147 29.7086C138.97 29.7083 141.259 31.9949 141.262 34.8174L141.305 81.4006C141.308 84.2264 139.018 86.5187 136.192 86.519L64.6153 86.5267C61.7927 86.527 59.5037 84.2404 59.5011 81.4179L59.4579 34.8347Z" fill="white"/>
<rect x="119.859" y="52.7627" width="3.65771" height="3.65771" rx="1.82885" transform="rotate(90.3232 119.859 52.7627)" fill="#6559FF"/>
<path d="M121.8 54.644C121.803 54.2074 122.159 53.8555 122.595 53.858L131.856 53.9102C132.293 53.9127 132.645 54.2686 132.642 54.7052V54.7052C132.64 55.1417 132.284 55.4936 131.847 55.4912L122.586 55.4389C122.15 55.4365 121.798 55.0806 121.8 54.644V54.644Z" fill="#EAEDF2"/>
<rect x="119.953" y="59.3604" width="3.65771" height="3.65771" rx="1.82885" transform="rotate(90.3232 119.953 59.3604)" fill="#5145EB"/>
<path d="M121.894 61.2417C121.896 60.8051 122.252 60.4532 122.689 60.4556L131.95 60.5079C132.386 60.5103 132.738 60.8662 132.736 61.3028V61.3028C132.733 61.7394 132.377 62.0913 131.941 62.0888L122.68 62.0366C122.243 62.0341 121.892 61.6782 121.894 61.2417V61.2417Z" fill="#EAEDF2"/>
<g clip-path="url(#clip0_10276_45001)">
<path d="M88.3607 70.2683C81.985 70.2323 76.8285 65.0173 76.8645 58.6416L84.0408 58.6821C84.0272 61.1004 85.9829 63.0801 88.4012 63.0938C90.8195 63.1074 92.7975 61.1517 92.8111 58.7315C92.8248 56.3132 90.869 54.3335 88.4507 54.3198L88.4912 47.1453C94.8669 47.1813 100.023 52.3963 99.9875 58.772C99.9515 65.1478 94.7365 70.3043 88.3607 70.2683V70.2683Z" fill="#5145EB"/>
<path d="M84.0408 58.6821L76.8645 58.6416C76.9004 52.2658 82.1155 47.1093 88.4912 47.1453L88.4507 54.3217C86.0324 54.308 84.0545 56.2638 84.0408 58.6839L84.0408 58.6821Z" fill="#D9DBFF"/>
<path d="M68.7284 64.1483C68.2554 62.3854 68.0223 60.5596 68.0327 58.7196C68.0965 47.409 77.3504 38.2589 88.661 38.3228L88.6178 45.967C81.5207 45.927 75.7151 51.6675 75.675 58.7646C75.6685 59.9212 75.8158 61.0689 76.1114 62.1727L68.7284 64.1483Z" fill="#D9DBFF"/>
<path d="M88.6691 38.3226L88.626 45.9668C95.7231 46.0069 101.464 51.8125 101.424 58.9097C101.384 66.0068 95.5779 71.7473 88.4807 71.7073C82.696 71.6746 77.6127 67.7536 76.1195 62.1744L68.7365 64.1481C71.1163 73.0463 79.2182 79.2976 88.4396 79.3496C99.7502 79.4134 109.004 70.2634 109.068 58.9528C109.13 47.6402 99.9797 38.3864 88.6691 38.3226Z" fill="#766CFF"/>
</g>
<g filter="url(#filter2_d_10276_45001)">
<g clip-path="url(#clip1_10276_45001)">
<rect x="121.906" y="21.5303" width="14.6278" height="14.6278" rx="7.31392" fill="#D7F4FF"/>
<path d="M127.43 24.7334C127.721 23.2769 128.982 23.6653 129.468 23.7138C130.634 22.8981 131.943 24.0051 131.943 24.4422C132.819 24.5877 133.013 25.5587 132.819 25.8986C134.217 26.0151 133.984 27.6463 133.545 27.7919C134.244 28.7241 134.128 29.7825 133.545 29.9767C132.526 29.9767 128.589 30.7347 127.43 30.8506C125.973 30.9961 126.202 30.0849 125.971 29.3942C125.582 28.229 126.313 27.3551 126.556 27.2094C126.264 26.4812 126.749 25.9958 126.992 25.753C126.701 25.4616 126.993 24.7334 127.43 24.7334Z" fill="#1F2533"/>
<path d="M127.091 37.8407C127.364 38.3571 130.193 38.3571 130.67 38.3571L130.811 38.3573C131.895 38.3589 134.476 38.5681 134.751 37.8407C135.03 37.1047 136.992 35.4355 136.974 34.593C136.94 32.9518 136.374 32.5118 135.116 31.07C133.427 29.1334 132.954 29.281 130.261 29.1334C128.802 29.0535 127.025 29.5001 126.398 29.8306C125.77 30.1612 125.344 30.8063 124.833 31.7015C124.321 32.5967 123.453 34.7256 123.453 34.7256L126.398 36.2509C126.412 37.0542 126.483 37.5337 127.091 37.8407Z" fill="#6559FF"/>
<path d="M131.159 29.3948L130.922 27.3558C131.054 27.3558 131.494 27.3008 131.492 26.7732C131.49 26.2948 130.99 26.2069 130.814 26.3387C130.814 26.3387 130.155 26.6024 129.408 25.8114C128.979 25.3569 129.057 24.8447 129.057 24.8447C128.881 25.372 128.525 25.7721 127.985 25.9001C127.952 25.948 127.906 26.2838 127.985 27.2432C128.063 28.2026 128.658 28.5529 128.87 28.5209L128.871 29.8318C129.853 30.2539 130.832 29.7146 131.159 29.3948Z" fill="#B9722B"/>
<circle cx="130.924" cy="27.3548" r="0.291299" fill="#FDD600"/>
<path d="M130.461 27.5C129.733 28.3739 129.056 28.5195 128.859 28.5195L128.857 29.0618C129.749 28.9483 130.41 27.8628 130.461 27.5Z" fill="#A4580C"/>
</g>
<rect x="121.906" y="21.5303" width="14.6278" height="14.6278" rx="7.31392" stroke="white" stroke-width="0.446567"/>
</g>
<g filter="url(#filter3_d_10276_45001)">
<g clip-path="url(#clip2_10276_45001)">
<rect x="111.93" y="21.5303" width="14.6278" height="14.6278" rx="7.31392" fill="#FFFBDC"/>
<path d="M120.436 26.6284C119.737 27.4441 120.631 28.619 121.165 29.1045C121.165 29.1045 121.486 28.2305 121.602 27.648C121.747 26.9206 121.748 25.7544 121.748 25.7544C121.651 25.4146 121.135 25.8128 120.436 26.6284Z" fill="#A3580F"/>
<ellipse cx="115.048" cy="37.1209" rx="1.82208" ry="0.500838" transform="rotate(20.0277 115.048 37.1209)" fill="#605ADE"/>
<rect width="2.33596" height="5.24088" transform="matrix(-0.843658 -0.53688 -0.53688 0.843658 117.578 35.2188)" fill="#EEBFA2"/>
<path d="M117.822 25.7389C116.624 25.4804 116.246 25.2636 116.219 25.1713C117.017 24.7649 118.682 24.9694 119.403 25.1387C119.375 25.4465 119.02 25.9975 117.822 25.7389Z" fill="#00AFD6"/>
<path d="M116.787 41.4235C116.637 41.3459 116.535 41.2055 116.485 41.0446C116.039 39.6022 115.85 38.3021 115.784 37.2636C115.069 36.8638 114.281 36.6037 113.462 36.5015L113.32 36.4838C113.32 36.4838 113.398 35.9224 113.907 34.8862C114.024 34.6464 114.135 34.4121 114.243 34.1822C114.602 33.419 114.938 32.7034 115.456 31.9876C116.064 31.1475 116.591 30.8512 117.173 30.7055C117.756 30.5599 119.212 30.4141 119.212 30.4141H122.125C122.965 30.3974 125.475 30.5597 125.912 32.5988C126.142 33.1721 125.461 34.7811 125.302 36.4073C125.187 37.5971 125.053 38.972 125.027 40.39C125.021 40.6995 124.894 41.001 124.638 41.1747C122.412 42.6828 118.311 42.2149 116.787 41.4235Z" fill="#01D0FF"/>
<rect width="1.55983" height="0.796777" rx="0.0810709" transform="matrix(-0.995656 -0.0931033 -0.0931033 0.995656 118.508 33.6191)" fill="#F0FBFF"/>
<path d="M118.695 26.9192C118.695 26.1953 119.282 25.6084 120.006 25.6084C120.73 25.6084 121.317 26.1953 121.317 26.9192V30.4148C121.317 31.1388 120.73 31.4344 120.006 31.4344C119.282 31.4344 118.695 31.1388 118.695 30.4148V26.9192Z" fill="#FFCDAE"/>
<path fill-rule="evenodd" clip-rule="evenodd" d="M118.688 29.7948V27.0781H120.45C120.762 27.0781 120.908 27.402 120.943 27.564L121.019 28.3765C120.661 28.9798 119.248 30.2961 118.688 29.7948Z" fill="#E5AE8C"/>
<circle cx="121.309" cy="27.356" r="0.582597" fill="#FFCDAE"/>
<path d="M120.425 28.8998C118.745 29.9615 118.17 29.07 118.112 28.4915L118.102 26.8115L118.111 25.6076C118.787 26.0499 120.352 25.4619 120.732 25.4619C121.112 25.4619 121.025 25.7862 121.025 26.4753V27.8534V28.4915L120.425 28.8998Z" fill="#FFCDAE"/>
<path d="M117.673 26.1912C117.673 26.7353 117.949 27.0134 118.111 27.0648V25.8999C118.256 26.6281 119.712 26.1912 120.44 25.8999C120.44 25.8999 120.296 26.6279 121.012 27.023C121.046 27.0082 121.169 26.7738 121.46 26.7738C121.751 25.9002 121.752 26.1912 121.798 25.5503C121.831 25.0816 121.595 24.5275 121.148 24.5376C120.504 23.6869 118.885 23.8582 118.641 24.2842C118.397 24.7102 117.879 24.791 117.61 24.9579C117.232 25.3651 117.352 26.0296 117.673 26.1912Z" fill="#A3580E"/>
<path d="M119.711 25.2656C120.585 25.317 121.413 25.9567 121.751 26.1909C121.836 25.8396 122.042 25.0257 121.314 24.2974C120.978 23.9614 120.08 23.7148 119.42 23.7148C118.546 23.7148 118.099 24.3042 117.963 24.5886C117.912 24.6221 117.672 24.6305 117.089 24.7342C116.49 24.841 116.338 25.0315 116.215 25.1712C116.652 25.0255 117.101 24.9645 117.913 25.2656C118.725 25.5667 119.103 25.2298 119.711 25.2656Z" fill="#01D0FF"/>
</g>
<rect x="111.93" y="21.5303" width="14.6278" height="14.6278" rx="7.31392" stroke="white" stroke-width="0.444043"/>
</g>
<g filter="url(#filter4_d_10276_45001)">
<g clip-path="url(#clip3_10276_45001)">
<rect x="101.969" y="21.5303" width="14.6278" height="14.6278" rx="7.31392" fill="#D7F4FF"/>
<path d="M107.77 25.491L106.758 24.4434L108.336 24.761L107.77 25.491Z" fill="#B7A400"/>
<path fill-rule="evenodd" clip-rule="evenodd" d="M107.498 26.4817C107.79 24.4426 108.401 24.0018 109.391 23.7119C109.886 23.5666 110.419 23.5921 110.898 23.8431C111.376 24.094 111.797 24.5679 112.075 25.3116C112.483 26.261 113.355 27.7312 114.387 28.9912C114.904 29.6213 115.459 30.1976 116.016 30.6296C116.574 31.0622 117.129 31.3472 117.644 31.4009L117.635 31.4883C117.096 31.4321 116.525 31.1359 115.962 30.6991C115.399 30.2616 114.838 29.6801 114.319 29.0469C113.772 28.3792 113.27 27.6527 112.857 26.9747C113.167 27.5631 113.551 28.2328 113.984 28.8886C114.479 29.6371 115.037 30.3659 115.625 30.9346C116.213 31.504 116.825 31.9087 117.428 32.0165L117.464 32.023V32.0597C117.464 33.3288 116.597 35.0229 114.929 36.0406C113.259 37.0602 110.787 37.3997 107.578 35.9667C106.758 35.6006 106.394 34.9259 106.314 34.19C106.235 33.4562 106.436 32.6604 106.747 32.0401C106.858 31.8179 106.965 31.4191 107.062 30.9221C107.159 30.4266 107.135 30.2843 107.207 29.686C107.353 28.489 107.207 28.5208 107.498 26.4817Z" fill="#A4580C"/>
<path d="M112.251 25.6841L106.637 24.4431L106.653 24.3688L107.689 24.315C108.129 23.5574 108.912 23.0694 109.76 23.0402C109.798 22.8785 109.952 22.775 110.107 22.8086L110.531 22.9006C110.675 22.932 110.77 23.0721 110.754 23.223C111.702 23.6212 112.302 24.6085 112.251 25.6841Z" fill="#FFF06B"/>
<path d="M107.027 37.8942C107.297 38.3973 110.101 38.3973 110.574 38.3973L110.714 38.3974C111.788 38.399 114.345 38.6028 114.618 37.8942C114.894 37.1774 116.839 35.5516 116.821 34.731C116.787 33.1324 116.226 32.7038 114.98 31.2995C113.306 29.4133 112.837 29.557 110.168 29.4133C108.723 29.3354 107.108 29.5197 106.486 29.8416C105.865 30.1636 105.296 31.0427 104.789 31.9146C104.282 32.7866 103.422 34.8601 103.422 34.8601L106.34 36.3457C106.354 37.1282 106.425 37.5953 107.027 37.8942Z" fill="#6559FF"/>
<path d="M111.138 29.5405L110.91 27.3558C111.041 27.3558 111.432 27.1552 111.43 26.6275C111.428 26.211 111.035 26.0781 110.796 26.2431C110.726 26.2911 110.654 26.3406 110.569 26.3403C110.17 26.3384 108.973 26.2285 108.371 25.0254C108.08 25.7536 107.919 26.596 107.972 27.2432C108.051 28.2026 108.645 28.553 108.858 28.521L108.858 29.8318C109.841 30.254 110.811 29.8603 111.138 29.5405Z" fill="#FFCDAE"/>
<path d="M110.461 27.502C109.733 28.3758 109.056 28.5215 108.859 28.5215L108.857 29.0638C109.749 28.9502 110.41 27.8648 110.461 27.502Z" fill="#E5AE8C"/>
</g>
<rect x="101.969" y="21.5303" width="14.6278" height="14.6278" rx="7.31392" stroke="white" stroke-width="0.446567"/>
</g>
<g filter="url(#filter5_d_10276_45001)">
<g clip-path="url(#clip4_10276_45001)">
<rect x="92" y="21.5303" width="14.6278" height="14.6278" rx="7.25691" fill="#FFFBDC"/>
<path fill-rule="evenodd" clip-rule="evenodd" d="M88.8086 26.8936C88.8464 26.747 88.8785 26.6226 88.8649 26.4787C88.7938 26.4329 88.6583 26.4786 88.6583 26.4786C88.6358 26.4915 88.6142 26.5062 88.5938 26.5224C88.5586 26.5568 88.5154 26.5811 88.4685 26.593C88.4227 26.5928 88.3782 26.578 88.3408 26.5507C88.3034 26.5233 88.2749 26.4846 88.2592 26.4399C88.2174 26.352 88.1984 26.2543 88.2041 26.1564C88.2097 26.0586 88.2399 25.9639 88.2914 25.882C88.343 25.7999 88.4142 25.7334 88.498 25.689C88.5819 25.6445 88.6754 25.6237 88.7693 25.6285C88.8096 25.5932 88.8562 25.5666 88.9064 25.5504C89.2467 25.4388 89.6489 25.7744 89.6489 25.7744L89.6473 25.6346C89.6473 25.6346 89.4828 25.2411 88.7932 25.2154C88.6897 25.213 88.5905 25.1711 88.5146 25.0977C88.4899 25.0766 88.47 25.05 88.4564 25.0199C88.4428 24.9897 88.4358 24.9568 88.436 24.9235C88.4476 24.7498 88.5677 24.7126 88.9989 24.7221C89.4301 24.7315 89.8459 24.8898 90.0084 25.1353C90.0884 25.2472 90.1604 25.3651 90.2241 25.4878C90.2241 25.4878 90.2817 24.2295 90.2858 24.1503C90.3072 23.9206 90.4218 23.7362 90.5699 23.7344C90.6654 23.7324 90.7851 23.8048 90.7714 24.0725C90.7594 24.3054 90.9245 26.7007 90.9245 26.7007L90.9258 26.809L90.9327 26.877C91.0415 27.2082 91.2906 27.0081 91.4307 26.8955L91.4537 26.877C91.4812 26.8552 91.5161 26.8249 91.5562 26.7899C91.7601 26.6123 92.099 26.317 92.2914 26.4343C92.4325 26.5204 92.1069 26.9495 91.8677 27.2647L91.8677 27.2647C91.7757 27.386 91.6964 27.4904 91.6615 27.5519C91.586 27.6849 91.5082 27.9696 91.4308 28.2525C91.3793 28.4406 91.3281 28.6278 91.2779 28.7693C91.2282 28.9094 91.2038 29.1419 91.1934 29.3769L91.5278 32.1057C91.5278 32.1057 91.859 34.1132 93.0631 34.7609C92.8473 35.1296 92.5341 35.4255 92.161 35.6131C91.7879 35.8007 91.3707 35.872 90.9596 35.8184C90.474 35.7557 90.0233 35.5222 89.6822 35.1564C89.341 34.7908 89.1297 34.3147 89.083 33.8069L88.9128 28.538L88.8987 28.3823C88.8887 28.3452 88.8749 28.3024 88.8593 28.2543L88.8593 28.2543L88.8593 28.2543C88.7881 28.0345 88.6805 27.702 88.7312 27.2755C88.7492 27.1244 88.7805 27.0028 88.8086 26.8936Z" fill="#B9722B"/>
<path d="M95.3765 41.1661C95.7289 41.831 99.3851 41.831 100.002 41.831C100.061 41.831 100.122 41.8311 100.185 41.8311C101.585 41.8332 103.963 41.8366 104.319 40.9002C104.679 39.9528 104.083 38.5054 104.06 37.421C104.047 36.7804 104.033 36.1409 104.099 35.532V33.6705C104.099 33.183 104.171 32.5654 104.233 32.038C104.279 31.6449 104.319 31.3018 104.319 31.0999C104.233 30.7897 102.953 30.1476 99.4732 29.9576C97.588 29.8547 95.4822 30.0982 94.6716 30.5237C93.8611 30.9492 92.8215 32.0751 92.1608 33.2274C92.1608 33.2274 92.1673 31.9421 92.0499 31.4102C91.9325 30.8784 91.5213 30.8341 91.5213 30.8341L91.2848 29.9577C90.0073 30.268 88.8782 29.9033 88.8782 29.9033L88.8342 30.6568C88.8342 30.6568 87.8437 31.0557 87.8438 31.8091C87.8438 32.5626 88.0199 37.2606 89.1212 38.1914C90.6028 39.4436 93.114 39.0165 94.0831 37.421C94.1011 38.455 94.591 40.771 95.3765 41.1661Z" fill="#00D1FF"/>
<path d="M97.9946 26.8487C98.0268 26.1252 98.6293 25.5652 99.3401 25.5981C100.051 25.6309 100.601 26.244 100.569 26.9675V27.8066L100.593 29.2101L100.569 30.1952C100.537 30.9188 99.7926 31.4327 99.0817 31.3999C98.3708 31.3671 97.8207 30.7539 97.8529 30.0304L97.9946 26.8487Z" fill="#B9722B"/>
<path fill-rule="evenodd" clip-rule="evenodd" d="M97.8516 30.0986L97.9868 27.0615L99.795 27.145C100.106 27.1593 100.236 27.5009 100.263 27.6699L100.21 28.8542C99.852 29.4204 98.488 30.4462 97.8516 30.0986Z" fill="#A4580C"/>
<path d="M97.25 28.1433V25.2702C97.2614 25.1428 97.4065 25.0693 97.5275 25.111C98.3109 25.3807 99.4587 24.9912 99.8439 24.9912C100.273 24.9912 100.521 25.1865 100.521 25.9396V27.4459V28.1433L99.8439 28.5896C97.9469 29.75 97.3159 28.7756 97.25 28.1433Z" fill="#B9722B"/>
<path d="M96.8985 25.6221C96.6711 26.4815 97.108 26.9184 97.2537 27.048L97.3276 25.6646L97.3899 25.3702C97.9848 26.0931 99.8057 25.5256 100.289 25.3215C100.289 25.3215 100.019 26.2658 100.527 27.1133C100.564 27.0971 100.695 26.991 100.888 27.048C101.122 26.2088 101.248 25.0312 101.248 25.0312C101.248 25.0312 101.346 24.0385 100.676 24.0738C99.97 23.1426 98.6382 23.3444 97.9305 23.7964C97.2227 24.2483 97.0705 23.8801 96.7756 24.0627C96.3625 24.5085 96.5468 25.4452 96.8985 25.6221Z" fill="#1F2533"/>
<circle cx="100.739" cy="27.064" r="0.582597" fill="#B9722B"/>
<path d="M97.5855 27.9006C98.0403 27.5052 98.9907 27.5014 99.4317 27.9403C100.156 28.084 100.302 26.1906 100.302 26.1906L100.593 26.0449C100.637 26.6141 100.739 28.084 100.384 28.6645C100.023 29.2558 99.3238 29.6534 98.7457 29.6534C98.1083 29.6534 97.5855 29.6979 97.2794 29.0239C97.0345 28.4847 97.1409 26.972 97.2429 26.6275V27.5014C97.2429 27.833 97.5855 27.9006 97.5855 27.9006Z" fill="#1F2533"/>
<path d="M103.797 30.7993C105.17 30.6194 109.594 40.3177 109.965 41.3322C110.335 42.3468 109.883 43.0214 109.73 43.2202L109.965 43.6266C109.965 43.7183 110.034 43.8578 109.274 44.36C108.515 44.8623 107.974 44.8136 107.798 44.7265L107.331 44.0902C107.159 44.0628 106.382 44.089 105.779 43.2764C105.751 43.2396 105.73 43.1987 105.713 43.1561L104.121 39.1116C104.262 39.6438 102.943 40.8437 102.289 41.074L103.797 30.7993Z" fill="#00D1FF"/>
<path d="M100.602 29.21C100.529 29.768 99.6447 30.2459 99.1287 30.6237C98.8533 30.8254 98.7669 31.1478 98.7462 31.4046C98.7183 31.1018 98.6404 30.7092 98.4284 30.5381C98.0598 30.2405 97.9189 30.2589 97.8834 29.6969C97.7205 29.7554 97.4661 30.0067 97.3595 30.6624C97.4336 31.1698 97.7651 31.6156 98.7601 31.8029C99.9328 31.8029 101.088 31.0509 101.266 30.4265C101.266 30.0334 100.958 29.21 100.602 29.21Z" fill="#00D1FF"/>
<path fill-rule="evenodd" clip-rule="evenodd" d="M97.6903 25.9565C97.3563 25.9565 97.0855 26.2274 97.0855 26.5614C97.0855 26.8955 97.3563 27.1663 97.6903 27.1663C98.0244 27.1663 98.2952 26.8955 98.2952 26.5614C98.2952 26.2274 98.0244 25.9565 97.6903 25.9565ZM96.9609 26.5614C96.9609 26.1586 97.2875 25.832 97.6903 25.832C98.0371 25.832 98.3274 26.0741 98.4014 26.3984C98.4461 26.3649 98.5016 26.3451 98.5617 26.3451C98.6218 26.3451 98.6773 26.3649 98.722 26.3984C98.7961 26.074 99.0863 25.832 99.4331 25.832C99.8359 25.832 100.163 26.1586 100.163 26.5614C100.163 26.9643 99.8359 27.2908 99.4331 27.2908C99.0475 27.2908 98.7318 26.9916 98.7055 26.6126H98.7048C98.7048 26.5336 98.6407 26.4696 98.5617 26.4696C98.4828 26.4696 98.4187 26.5336 98.4187 26.6126H98.418C98.3917 26.9916 98.076 27.2908 97.6903 27.2908C97.2875 27.2908 96.9609 26.9643 96.9609 26.5614ZM98.8282 26.5614C98.8282 26.2274 99.099 25.9565 99.4331 25.9565C99.7672 25.9565 100.038 26.2274 100.038 26.5614C100.038 26.8955 99.7672 27.1663 99.4331 27.1663C99.099 27.1663 98.8282 26.8955 98.8282 26.5614Z" fill="#FFF06B"/>
</g>
<rect x="92" y="21.5303" width="14.6278" height="14.6278" rx="7.25691" stroke="white" stroke-width="0.437549"/>
</g>
</g>
<circle cx="75.4993" cy="180.795" r="14.265" fill="#6559FF"/>
<path d="M79.2641 182.724H78.0601V184.796H76.0021V182.724H71.7321V181.254L76.1141 174.8H78.0601V181.086H79.2641V182.724ZM76.0021 179.392C76.0021 179.177 76.0068 178.916 76.0161 178.608C76.0255 178.3 76.0348 178.015 76.0441 177.754C76.0628 177.483 76.0768 177.306 76.0861 177.222H76.0301C75.9461 177.409 75.8575 177.591 75.7641 177.768C75.6708 177.945 75.5588 178.127 75.4281 178.314L73.5941 181.086H76.0021V179.392Z" fill="white"/>
<defs>
<filter id="filter0_d_10276_45001" x="6.74645" y="61.1412" width="90.3665" height="65.3401" filterUnits="userSpaceOnUse" color-interpolation-filters="sRGB">
<feFlood flood-opacity="0" result="BackgroundImageFix"/>
<feColorMatrix in="SourceAlpha" type="matrix" values="0 0 0 0 0 0 0 0 0 0 0 0 0 0 0 0 0 0 127 0" result="hardAlpha"/>
<feOffset dy="2.55682"/>
<feGaussianBlur stdDeviation="2.13068"/>
<feComposite in2="hardAlpha" operator="out"/>
<feColorMatrix type="matrix" values="0 0 0 0 0.175444 0 0 0 0 0.107708 0 0 0 0 0.5875 0 0 0 0.15 0"/>
<feBlend mode="normal" in2="BackgroundImageFix" result="effect1_dropShadow_10276_45001"/>
<feBlend mode="normal" in="SourceGraphic" in2="effect1_dropShadow_10276_45001" result="shape"/>
</filter>
<filter id="filter1_d_10276_45001" x="55.1996" y="19.6021" width="90.3665" height="73.7425" filterUnits="userSpaceOnUse" color-interpolation-filters="sRGB">
<feFlood flood-opacity="0" result="BackgroundImageFix"/>
<feColorMatrix in="SourceAlpha" type="matrix" values="0 0 0 0 0 0 0 0 0 0 0 0 0 0 0 0 0 0 127 0" result="hardAlpha"/>
<feOffset dy="2.55682"/>
<feGaussianBlur stdDeviation="2.13068"/>
<feComposite in2="hardAlpha" operator="out"/>
<feColorMatrix type="matrix" values="0 0 0 0 0.175444 0 0 0 0 0.107708 0 0 0 0 0.5875 0 0 0 0.15 0"/>
<feBlend mode="normal" in2="BackgroundImageFix" result="effect1_dropShadow_10276_45001"/>
<feBlend mode="normal" in="SourceGraphic" in2="effect1_dropShadow_10276_45001" result="shape"/>
</filter>
<filter id="filter2_d_10276_45001" x="117.161" y="17.3192" width="24.1164" height="24.1134" filterUnits="userSpaceOnUse" color-interpolation-filters="sRGB">
<feFlood flood-opacity="0" result="BackgroundImageFix"/>
<feColorMatrix in="SourceAlpha" type="matrix" values="0 0 0 0 0 0 0 0 0 0 0 0 0 0 0 0 0 0 127 0" result="hardAlpha"/>
<feOffset dy="0.531661"/>
<feGaussianBlur stdDeviation="2.25956"/>
<feComposite in2="hardAlpha" operator="out"/>
<feColorMatrix type="matrix" values="0 0 0 0 0.190972 0 0 0 0 0.307765 0 0 0 0 0.833333 0 0 0 0.17 0"/>
<feBlend mode="normal" in2="BackgroundImageFix" result="effect1_dropShadow_10276_45001"/>
<feBlend mode="normal" in="SourceGraphic" in2="effect1_dropShadow_10276_45001" result="shape"/>
</filter>
<filter id="filter3_d_10276_45001" x="107.217" y="17.3437" width="24.0575" height="24.0585" filterUnits="userSpaceOnUse" color-interpolation-filters="sRGB">
<feFlood flood-opacity="0" result="BackgroundImageFix"/>
<feColorMatrix in="SourceAlpha" type="matrix" values="0 0 0 0 0 0 0 0 0 0 0 0 0 0 0 0 0 0 127 0" result="hardAlpha"/>
<feOffset dy="0.528657"/>
<feGaussianBlur stdDeviation="2.24679"/>
<feComposite in2="hardAlpha" operator="out"/>
<feColorMatrix type="matrix" values="0 0 0 0 0.190972 0 0 0 0 0.307765 0 0 0 0 0.833333 0 0 0 0.17 0"/>
<feBlend mode="normal" in2="BackgroundImageFix" result="effect1_dropShadow_10276_45001"/>
<feBlend mode="normal" in="SourceGraphic" in2="effect1_dropShadow_10276_45001" result="shape"/>
</filter>
<filter id="filter4_d_10276_45001" x="97.2231" y="17.3192" width="24.1164" height="24.1134" filterUnits="userSpaceOnUse" color-interpolation-filters="sRGB">
<feFlood flood-opacity="0" result="BackgroundImageFix"/>
<feColorMatrix in="SourceAlpha" type="matrix" values="0 0 0 0 0 0 0 0 0 0 0 0 0 0 0 0 0 0 127 0" result="hardAlpha"/>
<feOffset dy="0.531661"/>
<feGaussianBlur stdDeviation="2.25956"/>
<feComposite in2="hardAlpha" operator="out"/>
<feColorMatrix type="matrix" values="0 0 0 0 0.190972 0 0 0 0 0.307765 0 0 0 0 0.833333 0 0 0 0.17 0"/>
<feBlend mode="normal" in2="BackgroundImageFix" result="effect1_dropShadow_10276_45001"/>
<feBlend mode="normal" in="SourceGraphic" in2="effect1_dropShadow_10276_45001" result="shape"/>
</filter>
<filter id="filter5_d_10276_45001" x="87.3534" y="17.4046" width="23.9182" height="23.9212" filterUnits="userSpaceOnUse" color-interpolation-filters="sRGB">
<feFlood flood-opacity="0" result="BackgroundImageFix"/>
<feColorMatrix in="SourceAlpha" type="matrix" values="0 0 0 0 0 0 0 0 0 0 0 0 0 0 0 0 0 0 127 0" result="hardAlpha"/>
<feOffset dy="0.520925"/>
<feGaussianBlur stdDeviation="2.21393"/>
<feComposite in2="hardAlpha" operator="out"/>
<feColorMatrix type="matrix" values="0 0 0 0 0.190972 0 0 0 0 0.307765 0 0 0 0 0.833333 0 0 0 0.17 0"/>
<feBlend mode="normal" in2="BackgroundImageFix" result="effect1_dropShadow_10276_45001"/>
<feBlend mode="normal" in="SourceGraphic" in2="effect1_dropShadow_10276_45001" result="shape"/>
</filter>
<linearGradient id="paint0_linear_10276_45001" x1="-8.49205" y1="1.04102" x2="149.647" y2="141.441" gradientUnits="userSpaceOnUse">
<stop stop-color="#00BAFF" stop-opacity="0.29"/>
<stop offset="1" stop-color="#00BAFF" stop-opacity="0"/>
</linearGradient>
<clipPath id="clip0_10276_45001">
<rect x="68.1562" y="38.208" width="41.0257" height="41.0257" rx="5.11364" transform="rotate(0.323228 68.1562 38.208)" fill="white"/>
</clipPath>
<clipPath id="clip1_10276_45001">
<rect x="121.906" y="21.5303" width="14.6278" height="14.6278" rx="7.31392" fill="white"/>
</clipPath>
<clipPath id="clip2_10276_45001">
<rect x="111.93" y="21.5303" width="14.6278" height="14.6278" rx="7.31392" fill="white"/>
</clipPath>
<clipPath id="clip3_10276_45001">
<rect x="101.969" y="21.5303" width="14.6278" height="14.6278" rx="7.31392" fill="white"/>
</clipPath>
<clipPath id="clip4_10276_45001">
<rect x="92" y="21.5303" width="14.6278" height="14.6278" rx="7.25691" fill="white"/>
</clipPath>
</defs>
</svg>
