<svg width="150" height="196" viewBox="0 0 150 196" fill="none" xmlns="http://www.w3.org/2000/svg">
<circle cx="74.9993" cy="75.1887" r="74.1477" fill="url(#paint0_linear_10276_45116)"/>
<g filter="url(#filter0_d_10276_45116)">
<rect x="11.0781" y="21.8369" width="126.989" height="107.386" rx="5.11364" fill="white" shape-rendering="crispEdges"/>
<g opacity="0.7">
<g clip-path="url(#clip0_10276_45116)">
<rect x="17.4688" y="28.6553" width="114.205" height="24.7159" rx="1.11342" fill="#F8FAFF"/>
<rect x="17.4688" y="28.6553" width="114.205" height="24.7159" rx="1.11342" fill="url(#paint1_radial_10276_45116)"/>
<rect x="17.4688" y="28.6553" width="114.205" height="24.7159" rx="1.11342" fill="url(#paint2_radial_10276_45116)"/>
</g>
</g>
<rect x="64.4844" y="45.6621" width="20.8914" height="22.1969" rx="10.4457" fill="#F3F6FB" stroke="white" stroke-width="1.05824"/>
<rect x="62.2266" y="39.7344" width="25.7505" height="25.7505" rx="12.8752" fill="#202634" stroke="white" stroke-width="1.05824"/>
<path d="M56.2853 77.7887C55.7321 77.7887 55.2968 77.9739 54.9793 78.3442C54.6619 78.7146 54.5031 79.2221 54.5031 79.8666C54.5031 80.5063 54.6499 81.0138 54.9433 81.389C55.2415 81.7594 55.6864 81.9445 56.278 81.9445C56.5041 81.9445 56.7182 81.9253 56.9202 81.8868C57.1222 81.8483 57.3194 81.8002 57.5118 81.7425V82.3053C57.3194 82.3774 57.1198 82.4304 56.913 82.464C56.711 82.4977 56.468 82.5145 56.1843 82.5145C55.66 82.5145 55.2222 82.4063 54.8711 82.1899C54.52 81.9734 54.2554 81.6656 54.0775 81.2663C53.9043 80.8671 53.8177 80.3981 53.8177 79.8594C53.8177 79.3399 53.9115 78.883 54.0991 78.4885C54.2915 78.0893 54.5729 77.779 54.9433 77.5578C55.3136 77.3317 55.7634 77.2187 56.2925 77.2187C56.836 77.2187 57.3098 77.3197 57.7138 77.5217L57.4541 78.0701C57.2954 77.9979 57.1174 77.933 56.9202 77.8753C56.7278 77.8175 56.5161 77.7887 56.2853 77.7887ZM60.0431 78.503C60.375 78.503 60.6588 78.5751 60.8945 78.7194C61.135 78.8637 61.3178 79.0681 61.4428 79.3327C61.5727 79.5924 61.6377 79.8979 61.6377 80.249V80.6314H58.9897C58.9993 81.0691 59.11 81.4034 59.3216 81.6343C59.5381 81.8604 59.8387 81.9734 60.2235 81.9734C60.4688 81.9734 60.6853 81.9518 60.8729 81.9085C61.0653 81.8604 61.2625 81.793 61.4645 81.7064V82.262C61.2673 82.3486 61.0725 82.4111 60.8801 82.4496C60.6877 82.4929 60.4592 82.5145 60.1946 82.5145C59.8291 82.5145 59.5044 82.44 59.2206 82.2909C58.9416 82.1418 58.7228 81.9205 58.564 81.6271C58.4101 81.3289 58.3332 80.9657 58.3332 80.5376C58.3332 80.1143 58.4029 79.7512 58.5424 79.4481C58.6867 79.1451 58.8863 78.9118 59.1412 78.7483C59.401 78.5847 59.7016 78.503 60.0431 78.503ZM60.0359 79.0224C59.7329 79.0224 59.4924 79.1211 59.3144 79.3183C59.1412 79.5107 59.0378 79.78 59.0042 80.1263H60.9739C60.9691 79.7993 60.8921 79.5347 60.743 79.3327C60.5939 79.1259 60.3582 79.0224 60.0359 79.0224ZM64.4259 78.503C64.4981 78.503 64.575 78.5078 64.6568 78.5174C64.7434 78.5222 64.818 78.5318 64.8805 78.5463L64.8011 79.1307C64.7386 79.1162 64.6688 79.1042 64.5919 79.0946C64.5197 79.085 64.45 79.0802 64.3826 79.0802C64.1854 79.0802 64.0002 79.1355 63.8271 79.2461C63.6539 79.3519 63.5144 79.5034 63.4086 79.7007C63.3076 79.8931 63.2571 80.1191 63.2571 80.3789V82.4424H62.6222V78.5751H63.1417L63.2138 79.2822H63.2427C63.3677 79.0705 63.5289 78.8878 63.7261 78.7338C63.9233 78.5799 64.1566 78.503 64.4259 78.503ZM66.8941 81.995C66.9903 81.995 67.0889 81.9878 67.1899 81.9734C67.2909 81.9542 67.3727 81.9349 67.4352 81.9157V82.3991C67.3679 82.4328 67.2717 82.4592 67.1466 82.4785C67.0216 82.5025 66.9013 82.5145 66.7859 82.5145C66.5839 82.5145 66.3963 82.4809 66.2231 82.4135C66.0548 82.3414 65.9177 82.2187 65.8118 82.0456C65.706 81.8724 65.6531 81.6295 65.6531 81.3168V79.0657H65.1048V78.7627L65.6603 78.5102L65.9129 77.6877H66.288V78.5751H67.4064V79.0657H66.288V81.3024C66.288 81.5381 66.3434 81.7137 66.454 81.8291C66.5694 81.9397 66.7161 81.995 66.8941 81.995ZM68.5343 77.1249C68.6305 77.1249 68.7147 77.1586 68.7868 77.2259C68.8638 77.2884 68.9023 77.3894 68.9023 77.5289C68.9023 77.6636 68.8638 77.7646 68.7868 77.832C68.7147 77.8993 68.6305 77.933 68.5343 77.933C68.4285 77.933 68.3395 77.8993 68.2673 77.832C68.1952 77.7646 68.1591 77.6636 68.1591 77.5289C68.1591 77.3894 68.1952 77.2884 68.2673 77.2259C68.3395 77.1586 68.4285 77.1249 68.5343 77.1249ZM68.8445 78.5751V82.4424H68.2096V78.5751H68.8445ZM71.8519 79.0657H70.8778V82.4424H70.2429V79.0657H69.5647V78.7699L70.2429 78.5535V78.3298C70.2429 77.8296 70.3535 77.4712 70.5748 77.2548C70.7961 77.0335 71.1039 76.9229 71.4983 76.9229C71.6522 76.9229 71.7917 76.9373 71.9168 76.9662C72.0467 76.9902 72.1573 77.0191 72.2487 77.0527L72.0827 77.5506C72.0058 77.5265 71.9168 77.5025 71.8158 77.4784C71.7148 77.4544 71.6114 77.4423 71.5055 77.4423C71.2939 77.4423 71.1352 77.5145 71.0293 77.6588C70.9283 77.7983 70.8778 78.0196 70.8778 78.3226V78.5751H71.8519V79.0657ZM72.8764 77.1249C72.9726 77.1249 73.0568 77.1586 73.1289 77.2259C73.2059 77.2884 73.2444 77.3894 73.2444 77.5289C73.2444 77.6636 73.2059 77.7646 73.1289 77.832C73.0568 77.8993 72.9726 77.933 72.8764 77.933C72.7706 77.933 72.6816 77.8993 72.6094 77.832C72.5373 77.7646 72.5012 77.6636 72.5012 77.5289C72.5012 77.3894 72.5373 77.2884 72.6094 77.2259C72.6816 77.1586 72.7706 77.1249 72.8764 77.1249ZM73.1867 78.5751V82.4424H72.5517V78.5751H73.1867ZM75.9613 82.5145C75.6198 82.5145 75.3143 82.4448 75.045 82.3053C74.7804 82.1658 74.5712 81.9494 74.4173 81.6559C74.2682 81.3625 74.1936 80.9873 74.1936 80.5304C74.1936 80.0542 74.273 79.667 74.4317 79.3688C74.5904 79.0705 74.8045 78.8517 75.0738 78.7122C75.348 78.5727 75.6583 78.503 76.0046 78.503C76.2018 78.503 76.3918 78.5246 76.5746 78.5679C76.7574 78.6064 76.9065 78.6545 77.0219 78.7122L76.8271 79.2389C76.7117 79.1956 76.577 79.1547 76.4231 79.1162C76.2691 79.0778 76.1248 79.0585 75.9902 79.0585C75.2302 79.0585 74.8502 79.5467 74.8502 80.5232C74.8502 80.9898 74.9416 81.3481 75.1243 81.5982C75.3119 81.8435 75.5885 81.9662 75.9541 81.9662C76.1657 81.9662 76.3509 81.9445 76.5096 81.9013C76.6732 81.858 76.8223 81.8051 76.957 81.7425V82.3053C76.8271 82.3726 76.6828 82.4231 76.5241 82.4568C76.3701 82.4953 76.1826 82.5145 75.9613 82.5145ZM79.3413 78.5102C79.8127 78.5102 80.1614 78.6136 80.3875 78.8204C80.6136 79.0273 80.7266 79.3567 80.7266 79.8089V82.4424H80.2649L80.1422 81.894H80.1133C79.945 82.1057 79.767 82.262 79.5794 82.363C79.3966 82.464 79.1417 82.5145 78.8146 82.5145C78.4635 82.5145 78.1725 82.4231 77.9416 82.2404C77.7107 82.0528 77.5953 81.7618 77.5953 81.3673C77.5953 80.9825 77.7468 80.6867 78.0498 80.4799C78.3529 80.2682 78.8194 80.1528 79.4495 80.1336L80.1061 80.1119V79.881C80.1061 79.5588 80.0364 79.3351 79.8969 79.21C79.7574 79.085 79.5602 79.0224 79.3052 79.0224C79.1032 79.0224 78.9108 79.0537 78.728 79.1162C78.5453 79.174 78.3745 79.2413 78.2158 79.3183L78.021 78.8421C78.1893 78.7507 78.3889 78.6737 78.6198 78.6112C78.8507 78.5438 79.0912 78.5102 79.3413 78.5102ZM79.5289 80.5737C79.0479 80.5929 78.7136 80.6699 78.526 80.8046C78.3432 80.9392 78.2518 81.1292 78.2518 81.3746C78.2518 81.591 78.3168 81.7497 78.4467 81.8507C78.5813 81.9518 78.7521 82.0023 78.9589 82.0023C79.286 82.0023 79.5578 81.9133 79.7742 81.7353C79.9907 81.5525 80.0989 81.2735 80.0989 80.8984V80.552L79.5289 80.5737ZM83.2125 81.995C83.3087 81.995 83.4073 81.9878 83.5084 81.9734C83.6094 81.9542 83.6911 81.9349 83.7537 81.9157V82.3991C83.6863 82.4328 83.5901 82.4592 83.4651 82.4785C83.34 82.5025 83.2198 82.5145 83.1043 82.5145C82.9023 82.5145 82.7147 82.4809 82.5415 82.4135C82.3732 82.3414 82.2361 82.2187 82.1303 82.0456C82.0245 81.8724 81.9716 81.6295 81.9716 81.3168V79.0657H81.4232V78.7627L81.9788 78.5102L82.2313 77.6877H82.6065V78.5751H83.7248V79.0657H82.6065V81.3024C82.6065 81.5381 82.6618 81.7137 82.7724 81.8291C82.8879 81.9397 83.0346 81.995 83.2125 81.995ZM86.0216 78.503C86.3535 78.503 86.6373 78.5751 86.8729 78.7194C87.1134 78.8637 87.2962 79.0681 87.4213 79.3327C87.5512 79.5924 87.6161 79.8979 87.6161 80.249V80.6314H84.9682C84.9778 81.0691 85.0884 81.4034 85.3001 81.6343C85.5165 81.8604 85.8171 81.9734 86.2019 81.9734C86.4473 81.9734 86.6637 81.9518 86.8513 81.9085C87.0437 81.8604 87.2409 81.793 87.4429 81.7064V82.262C87.2457 82.3486 87.0509 82.4111 86.8585 82.4496C86.6661 82.4929 86.4376 82.5145 86.1731 82.5145C85.8075 82.5145 85.4828 82.44 85.199 82.2909C84.9201 82.1418 84.7012 81.9205 84.5425 81.6271C84.3886 81.3289 84.3116 80.9657 84.3116 80.5376C84.3116 80.1143 84.3813 79.7512 84.5208 79.4481C84.6651 79.1451 84.8648 78.9118 85.1197 78.7483C85.3794 78.5847 85.6801 78.503 86.0216 78.503ZM86.0144 79.0224C85.7113 79.0224 85.4708 79.1211 85.2928 79.3183C85.1197 79.5107 85.0163 79.78 84.9826 80.1263H86.9523C86.9475 79.7993 86.8705 79.5347 86.7214 79.3327C86.5723 79.1259 86.3366 79.0224 86.0144 79.0224ZM93.8371 80.5015C93.8371 81.1413 93.6735 81.6367 93.3464 81.9878C93.0242 82.339 92.5864 82.5145 92.0333 82.5145C91.6918 82.5145 91.3863 82.4376 91.117 82.2837C90.8524 82.1249 90.6432 81.8964 90.4893 81.5982C90.3353 81.2952 90.2584 80.9296 90.2584 80.5015C90.2584 79.8618 90.4195 79.3688 90.7418 79.0224C91.0641 78.6761 91.5018 78.503 92.0549 78.503C92.4061 78.503 92.7139 78.5823 92.9785 78.7411C93.2478 78.895 93.4571 79.1211 93.6062 79.4193C93.7601 79.7127 93.8371 80.0734 93.8371 80.5015ZM90.915 80.5015C90.915 80.9585 91.0039 81.3216 91.1819 81.591C91.3647 81.8556 91.6533 81.9878 92.0477 81.9878C92.4373 81.9878 92.7235 81.8556 92.9063 81.591C93.0891 81.3216 93.1805 80.9585 93.1805 80.5015C93.1805 80.0446 93.0891 79.6862 92.9063 79.4265C92.7235 79.1667 92.4349 79.0369 92.0405 79.0369C91.6461 79.0369 91.3599 79.1667 91.1819 79.4265C91.0039 79.6862 90.915 80.0446 90.915 80.5015ZM96.6254 79.0657H95.6514V82.4424H95.0165V79.0657H94.3383V78.7699L95.0165 78.5535V78.3298C95.0165 77.8296 95.1271 77.4712 95.3484 77.2548C95.5696 77.0335 95.8775 76.9229 96.2719 76.9229C96.4258 76.9229 96.5653 76.9373 96.6904 76.9662C96.8203 76.9902 96.9309 77.0191 97.0223 77.0527L96.8563 77.5506C96.7794 77.5265 96.6904 77.5025 96.5894 77.4784C96.4884 77.4544 96.3849 77.4423 96.2791 77.4423C96.0675 77.4423 95.9088 77.5145 95.8029 77.6588C95.7019 77.7983 95.6514 78.0196 95.6514 78.3226V78.5751H96.6254V79.0657ZM52.4055 92.5362C51.9177 92.5362 51.4988 92.4455 51.1486 92.2642C50.7984 92.0766 50.5295 91.7889 50.342 91.4012C50.1544 91.0136 50.0606 90.5164 50.0606 89.9099C50.0606 89.2846 50.1637 88.775 50.3701 88.381C50.5827 87.9871 50.8735 87.6963 51.2424 87.5087C51.6176 87.3211 52.0459 87.2273 52.5274 87.2273C52.84 87.2273 53.1308 87.2617 53.3997 87.3305C53.6686 87.3993 53.8937 87.4806 54.075 87.5744L53.6342 88.6249C53.4466 88.5436 53.2746 88.4779 53.1183 88.4279C52.9682 88.3779 52.8025 88.3529 52.6212 88.3529C52.4023 88.3529 52.2147 88.4123 52.0584 88.5311C51.9083 88.6437 51.7927 88.8156 51.7114 89.047C51.6301 89.2721 51.5894 89.5566 51.5894 89.9005C51.5894 90.2382 51.6301 90.5196 51.7114 90.7447C51.7989 90.9635 51.9177 91.1292 52.0678 91.2418C52.2241 91.3481 52.4086 91.4012 52.6212 91.4012C52.8588 91.4012 53.0839 91.3637 53.2965 91.2887C53.5154 91.2074 53.7217 91.098 53.9156 90.9604V92.1516C53.7092 92.2892 53.4872 92.3861 53.2496 92.4424C53.0183 92.5049 52.7369 92.5362 52.4055 92.5362ZM59.4694 89.8724C59.4694 90.2976 59.4131 90.6759 59.3005 91.0073C59.1942 91.3387 59.0379 91.6201 58.8316 91.8515C58.6252 92.0766 58.372 92.2485 58.0718 92.3673C57.7779 92.4799 57.4465 92.5362 57.0776 92.5362C56.7337 92.5362 56.4148 92.4799 56.1209 92.3673C55.827 92.2485 55.5737 92.0766 55.3611 91.8515C55.1548 91.6201 54.9922 91.3387 54.8734 91.0073C54.7608 90.6759 54.7046 90.2976 54.7046 89.8724C54.7046 89.3034 54.8015 88.825 54.9953 88.4373C55.1892 88.0434 55.4643 87.7432 55.8207 87.5369C56.1771 87.3305 56.6055 87.2273 57.1057 87.2273C57.5685 87.2273 57.9749 87.3305 58.3251 87.5369C58.6815 87.7432 58.9598 88.0434 59.1599 88.4373C59.3662 88.825 59.4694 89.3034 59.4694 89.8724ZM56.2334 89.8724C56.2334 90.21 56.2616 90.4946 56.3178 90.7259C56.3804 90.951 56.4742 91.123 56.5992 91.2418C56.7305 91.3544 56.8962 91.4106 57.0963 91.4106C57.3027 91.4106 57.4653 91.3544 57.5841 91.2418C57.7091 91.123 57.7998 90.951 57.8561 90.7259C57.9124 90.4946 57.9405 90.21 57.9405 89.8724C57.9405 89.5347 57.9124 89.2533 57.8561 89.0282C57.7998 88.8031 57.706 88.6343 57.5747 88.5217C57.4496 88.4092 57.2871 88.3529 57.087 88.3529C56.7806 88.3529 56.5617 88.4811 56.4304 88.7374C56.2991 88.9876 56.2334 89.3659 56.2334 89.8724ZM66.2869 87.2273C66.8434 87.2273 67.2623 87.3774 67.5437 87.6776C67.8314 87.9715 67.9752 88.4467 67.9752 89.1033V92.4424H66.4838V89.4503C66.4838 89.0814 66.4276 88.8062 66.315 88.6249C66.2087 88.4373 66.0461 88.3435 65.8273 88.3435C65.5146 88.3435 65.2958 88.4748 65.1707 88.7374C65.0456 89.0001 64.9831 89.3784 64.9831 89.8724V92.4424H63.4824V89.4503C63.4824 89.2064 63.4574 89.0032 63.4073 88.8406C63.3636 88.678 63.2948 88.5561 63.201 88.4748C63.1072 88.3873 62.9821 88.3435 62.8258 88.3435C62.6132 88.3435 62.4444 88.4092 62.3193 88.5405C62.2005 88.6718 62.1161 88.8625 62.0661 89.1126C62.016 89.3628 61.991 89.6692 61.991 90.0318V92.4424H60.4903V87.3211H61.6252L61.8409 87.9777H61.8972C61.991 87.8026 62.1067 87.6619 62.2443 87.5556C62.3881 87.4431 62.5507 87.3618 62.732 87.3118C62.9196 87.2555 63.1197 87.2273 63.3323 87.2273C63.6825 87.2273 63.9764 87.2899 64.214 87.4149C64.4578 87.5337 64.6486 87.7213 64.7861 87.9777H64.8706C65.0206 87.7151 65.2207 87.5244 65.4708 87.4055C65.7272 87.2867 65.9992 87.2273 66.2869 87.2273ZM72.0522 87.2273C72.5899 87.2273 73.0183 87.4524 73.3372 87.9027C73.6623 88.3466 73.8249 89.0032 73.8249 89.8724C73.8249 90.4539 73.7467 90.9448 73.5904 91.345C73.4341 91.7389 73.2183 92.0359 72.9432 92.236C72.6681 92.4361 72.3523 92.5362 71.9959 92.5362C71.7708 92.5362 71.5769 92.5049 71.4143 92.4424C71.2518 92.3799 71.1142 92.2986 71.0016 92.1985C70.8953 92.0985 70.8015 91.9922 70.7203 91.8796H70.6546C70.6734 91.9984 70.689 92.1235 70.7015 92.2548C70.714 92.3799 70.7203 92.5049 70.7203 92.63V94.6935H69.2195V87.3211H70.4389L70.6546 87.9871H70.7203C70.8015 87.8495 70.9016 87.7245 71.0204 87.6119C71.1392 87.4931 71.283 87.3993 71.4519 87.3305C71.6207 87.2617 71.8208 87.2273 72.0522 87.2273ZM71.5175 88.3435C71.3237 88.3435 71.1673 88.3935 71.0485 88.4936C70.9297 88.5936 70.8453 88.7468 70.7953 88.9532C70.7453 89.1533 70.7203 89.4065 70.7203 89.7129V89.863C70.7203 90.1944 70.7453 90.4758 70.7953 90.7072C70.8453 90.9323 70.9297 91.1042 71.0485 91.223C71.1673 91.3418 71.3299 91.4012 71.5363 91.4012C71.7051 91.4012 71.8458 91.3418 71.9584 91.223C72.0709 91.1042 72.1553 90.9291 72.2116 90.6978C72.2679 90.4664 72.296 90.185 72.296 89.8536C72.296 89.3534 72.2304 88.9782 72.0991 88.7281C71.974 88.4717 71.7801 88.3435 71.5175 88.3435ZM76.3443 92.4424H74.8436V85.3139H76.3443V92.4424ZM79.7107 87.2273C80.1671 87.2273 80.5611 87.318 80.8925 87.4993C81.2239 87.6807 81.4803 87.9433 81.6616 88.2872C81.8429 88.6311 81.9336 89.0532 81.9336 89.5535V90.2288H78.8852C78.8978 90.6227 78.9978 90.9323 79.1854 91.1574C79.3792 91.3825 79.6544 91.495 80.0108 91.495C80.3234 91.495 80.6048 91.4638 80.855 91.4012C81.1113 91.3325 81.374 91.2293 81.6428 91.0917V92.1704C81.4115 92.2954 81.1582 92.3861 80.8831 92.4424C80.6142 92.5049 80.2797 92.5362 79.8795 92.5362C79.3917 92.5362 78.9572 92.4424 78.5757 92.2548C78.2005 92.0609 77.9035 91.7702 77.6847 91.3825C77.4721 90.9948 77.3658 90.5071 77.3658 89.9193C77.3658 89.319 77.4627 88.8219 77.6565 88.4279C77.8566 88.0277 78.1318 87.7276 78.4819 87.5275C78.8383 87.3274 79.2479 87.2273 79.7107 87.2273ZM79.7388 88.2216C79.5137 88.2216 79.3261 88.3091 79.176 88.4842C79.0259 88.6593 78.9384 88.9313 78.9134 89.3002H80.5548C80.5548 89.0939 80.5235 88.9094 80.461 88.7468C80.3985 88.5842 80.3078 88.4561 80.189 88.3623C80.0702 88.2685 79.9201 88.2216 79.7388 88.2216ZM85.1542 91.42C85.3042 91.42 85.4418 91.4044 85.5669 91.3731C85.6982 91.3418 85.8326 91.3043 85.9702 91.2606V92.3017C85.8139 92.3642 85.6294 92.4174 85.4168 92.4611C85.2105 92.5112 84.9666 92.5362 84.6852 92.5362C84.3851 92.5362 84.1162 92.4862 83.8786 92.3861C83.6472 92.2861 83.4659 92.1141 83.3345 91.8702C83.2032 91.6201 83.1376 91.2762 83.1376 90.8385V88.3716H82.5279V87.7807L83.2595 87.3118L83.6722 86.2331H84.6383V87.3211H85.9139V88.3716H84.6383V90.8385C84.6383 91.0323 84.6852 91.1793 84.779 91.2793C84.8728 91.3731 84.9979 91.42 85.1542 91.42ZM88.3894 87.3211V92.4424H86.8887V87.3211H88.3894ZM87.6484 85.3139C87.8673 85.3139 88.0549 85.3639 88.2112 85.464C88.3675 85.5578 88.4457 85.736 88.4457 85.9986C88.4457 86.255 88.3675 86.4332 88.2112 86.5332C88.0549 86.6333 87.8673 86.6833 87.6484 86.6833C87.4233 86.6833 87.2326 86.6333 87.0763 86.5332C86.9199 86.4332 86.8418 86.255 86.8418 85.9986C86.8418 85.736 86.9199 85.5578 87.0763 85.464C87.2326 85.3639 87.4233 85.3139 87.6484 85.3139ZM94.1756 89.8724C94.1756 90.2976 94.1194 90.6759 94.0068 91.0073C93.9005 91.3387 93.7442 91.6201 93.5378 91.8515C93.3315 92.0766 93.0782 92.2485 92.7781 92.3673C92.4842 92.4799 92.1528 92.5362 91.7839 92.5362C91.4399 92.5362 91.121 92.4799 90.8271 92.3673C90.5332 92.2485 90.28 92.0766 90.0674 91.8515C89.861 91.6201 89.6985 91.3387 89.5797 91.0073C89.4671 90.6759 89.4108 90.2976 89.4108 89.8724C89.4108 89.3034 89.5077 88.825 89.7016 88.4373C89.8954 88.0434 90.1706 87.7432 90.527 87.5369C90.8834 87.3305 91.3118 87.2273 91.812 87.2273C92.2747 87.2273 92.6812 87.3305 93.0313 87.5369C93.3878 87.7432 93.666 88.0434 93.8661 88.4373C94.0725 88.825 94.1756 89.3034 94.1756 89.8724ZM90.9397 89.8724C90.9397 90.21 90.9678 90.4946 91.0241 90.7259C91.0866 90.951 91.1804 91.123 91.3055 91.2418C91.4368 91.3544 91.6025 91.4106 91.8026 91.4106C92.009 91.4106 92.1715 91.3544 92.2904 91.2418C92.4154 91.123 92.5061 90.951 92.5624 90.7259C92.6186 90.4946 92.6468 90.21 92.6468 89.8724C92.6468 89.5347 92.6186 89.2533 92.5624 89.0282C92.5061 88.8031 92.4123 88.6343 92.281 88.5217C92.1559 88.4092 91.9933 88.3529 91.7932 88.3529C91.4868 88.3529 91.268 88.4811 91.1367 88.7374C91.0054 88.9876 90.9397 89.3659 90.9397 89.8724ZM98.0855 87.2273C98.5982 87.2273 99.0109 87.3774 99.3236 87.6776C99.6425 87.9715 99.8019 88.4467 99.8019 89.1033V92.4424H98.3012V89.4503C98.3012 89.0814 98.2449 88.8062 98.1324 88.6249C98.0261 88.4373 97.8541 88.3435 97.6165 88.3435C97.2538 88.3435 97.0099 88.4905 96.8849 88.7843C96.7598 89.072 96.6973 89.4878 96.6973 90.0318V92.4424H95.1966V87.3211H96.3315L96.5378 87.9777H96.6035C96.7098 87.8026 96.8349 87.6619 96.9787 87.5556C97.1288 87.4431 97.2976 87.3618 97.4852 87.3118C97.6728 87.2555 97.8729 87.2273 98.0855 87.2273Z" fill="#1F2533"/>
<rect x="50.1016" y="100.067" width="49.8779" height="3.50784" rx="1.75392" fill="#EAEDF2"/>
<rect x="56.1875" y="106.786" width="37.7071" height="3.50784" rx="1.75392" fill="#EAEDF2"/>
<path d="M74.0862 46.355C74.4822 45.4965 75.7024 45.4965 76.0984 46.355L77.2612 48.8759C77.4226 49.2258 77.7542 49.4667 78.1368 49.5121L80.8936 49.839C81.8325 49.9503 82.2096 51.1107 81.5154 51.7526L79.4773 53.6375C79.1944 53.8991 79.0677 54.2889 79.1428 54.6669L79.6838 57.3898C79.8681 58.3171 78.8809 59.0343 78.0559 58.5725L75.6335 57.2165C75.2973 57.0283 74.8874 57.0283 74.5512 57.2165L72.1287 58.5725C71.3037 59.0343 70.3166 58.3171 70.5008 57.3898L71.0419 54.6669C71.117 54.2889 70.9903 53.8991 70.7074 53.6375L68.6692 51.7526C67.9751 51.1107 68.3521 49.9503 69.291 49.839L72.0478 49.5121C72.4305 49.4667 72.7621 49.2258 72.9235 48.8759L74.0862 46.355Z" stroke="#F8F8FF" stroke-width="1.02273" stroke-linejoin="round"/>
</g>
<circle cx="74.9993" cy="180.795" r="14.265" fill="#6559FF"/>
<path d="M75.1941 178.412C75.8008 178.412 76.3421 178.529 76.8181 178.762C77.2941 178.995 77.6675 179.336 77.9381 179.784C78.2181 180.232 78.3581 180.787 78.3581 181.45C78.3581 182.533 78.0221 183.387 77.3501 184.012C76.6781 184.628 75.6841 184.936 74.3681 184.936C73.8455 184.936 73.3508 184.889 72.8841 184.796C72.4268 184.703 72.0255 184.567 71.6801 184.39V182.57C72.0255 182.747 72.4408 182.901 72.9261 183.032C73.4115 183.153 73.8688 183.214 74.2981 183.214C74.9235 183.214 75.3995 183.088 75.7261 182.836C76.0621 182.575 76.2301 182.173 76.2301 181.632C76.2301 180.624 75.5628 180.12 74.2281 180.12C73.9668 180.12 73.6961 180.148 73.4161 180.204C73.1361 180.251 72.9028 180.297 72.7161 180.344L71.8761 179.896L72.2541 174.8H77.6721V176.592H74.1021L73.9201 178.552C74.0788 178.524 74.2468 178.496 74.4241 178.468C74.6108 178.431 74.8675 178.412 75.1941 178.412Z" fill="white"/>
<defs>
<filter id="filter0_d_10276_45116" x="6.81676" y="20.1324" width="135.515" height="115.909" filterUnits="userSpaceOnUse" color-interpolation-filters="sRGB">
<feFlood flood-opacity="0" result="BackgroundImageFix"/>
<feColorMatrix in="SourceAlpha" type="matrix" values="0 0 0 0 0 0 0 0 0 0 0 0 0 0 0 0 0 0 127 0" result="hardAlpha"/>
<feOffset dy="2.55682"/>
<feGaussianBlur stdDeviation="2.13068"/>
<feComposite in2="hardAlpha" operator="out"/>
<feColorMatrix type="matrix" values="0 0 0 0 0.175444 0 0 0 0 0.107708 0 0 0 0 0.5875 0 0 0 0.15 0"/>
<feBlend mode="normal" in2="BackgroundImageFix" result="effect1_dropShadow_10276_45116"/>
<feBlend mode="normal" in="SourceGraphic" in2="effect1_dropShadow_10276_45116" result="shape"/>
</filter>
<linearGradient id="paint0_linear_10276_45116" x1="18.3138" y1="1.04102" x2="117.253" y2="149.336" gradientUnits="userSpaceOnUse">
<stop stop-color="#6559FF" stop-opacity="0.26"/>
<stop offset="1" stop-color="#6559FF" stop-opacity="0"/>
</linearGradient>
<radialGradient id="paint1_radial_10276_45116" cx="0" cy="0" r="1" gradientUnits="userSpaceOnUse" gradientTransform="translate(139.77 -7.56632) rotate(113.097) scale(94.5072 93.4369)">
<stop stop-color="#00BAFF"/>
<stop offset="1" stop-color="#E3E0FF" stop-opacity="0"/>
</radialGradient>
<radialGradient id="paint2_radial_10276_45116" cx="0" cy="0" r="1" gradientUnits="userSpaceOnUse" gradientTransform="translate(17.8949 97.6894) rotate(-48.3419) scale(82.7034 59.8512)">
<stop stop-color="#FDD600"/>
<stop offset="1" stop-color="#FFD800" stop-opacity="0"/>
</radialGradient>
<clipPath id="clip0_10276_45116">
<rect x="17.4688" y="28.6553" width="114.205" height="24.7159" rx="1.11342" fill="white"/>
</clipPath>
</defs>
</svg>
