<svg width="150" height="196" viewBox="0 0 150 196" fill="none" xmlns="http://www.w3.org/2000/svg">
<circle cx="74.9993" cy="75.1887" r="74.1477" fill="url(#paint0_linear_10276_44966)"/>
<g filter="url(#filter0_d_10276_44966)">
<rect x="38" y="13.5303" width="73.2955" height="123.58" rx="8.52273" fill="white"/>
<rect x="45.6797" y="25.3027" width="28.7915" height="2.55203" rx="1.27601" fill="#DBE0EB"/>
<rect x="45.6797" y="30.4082" width="40.7426" height="2.55203" rx="1.27601" fill="#DBE0EB"/>
<rect x="45.6797" y="43.1992" width="28.7915" height="2.55203" rx="1.27601" fill="#DBE0EB"/>
<rect x="45.6797" y="48.3047" width="40.7426" height="2.55203" rx="1.27601" fill="#EAEDF2"/>
<rect x="45.6797" y="55.1318" width="28.125" height="9.375" rx="1.70455" fill="#6559FF"/>
<rect x="75.5078" y="55.1318" width="28.125" height="9.375" rx="1.70455" fill="#EAEDF2"/>
<path fill-rule="evenodd" clip-rule="evenodd" d="M61.9016 58.1509C61.9987 58.248 61.9987 58.4054 61.9016 58.5025L59.1672 61.2369C59.0702 61.3339 58.9128 61.3339 58.8157 61.2369L57.5728 59.994C57.4757 59.8969 57.4757 59.7395 57.5728 59.6424C57.6699 59.5453 57.8273 59.5453 57.9244 59.6424L58.9915 60.7095L61.5501 58.1509C61.6472 58.0539 61.8045 58.0539 61.9016 58.1509Z" fill="white"/>
<path d="M91.2354 58.5025C91.3325 58.4054 91.3325 58.248 91.2354 58.1509C91.1384 58.0539 90.981 58.0539 90.8839 58.1509L89.5682 59.4666L88.2525 58.1509C88.1554 58.0539 87.998 58.0539 87.9009 58.1509C87.8039 58.248 87.8039 58.4054 87.9009 58.5025L89.2166 59.8182L87.9009 61.1339C87.8039 61.231 87.8039 61.3884 87.9009 61.4854C87.998 61.5825 88.1554 61.5825 88.2525 61.4854L89.5682 60.1697L90.8839 61.4854C90.981 61.5825 91.1384 61.5825 91.2354 61.4854C91.3325 61.3884 91.3325 61.231 91.2354 61.1339L89.9197 59.8182L91.2354 58.5025Z" fill="white"/>
<rect x="45.6797" y="73.8809" width="28.7915" height="2.55203" rx="1.27601" fill="#DBE0EB"/>
<rect x="45.6797" y="78.9863" width="40.7426" height="2.55203" rx="1.27601" fill="#EAEDF2"/>
<rect x="45.6797" y="85.8125" width="28.125" height="9.375" rx="1.70455" fill="#EAEDF2"/>
<rect x="75.5078" y="85.8125" width="28.125" height="9.375" rx="1.70455" fill="#6559FF"/>
<path fill-rule="evenodd" clip-rule="evenodd" d="M61.9016 88.8326C61.9987 88.9296 61.9987 89.087 61.9016 89.1841L59.1672 91.9185C59.0702 92.0156 58.9128 92.0156 58.8157 91.9185L57.5728 90.6756C57.4757 90.5785 57.4757 90.4211 57.5728 90.3241C57.6699 90.227 57.8273 90.227 57.9244 90.3241L58.9915 91.3912L61.5501 88.8326C61.6472 88.7355 61.8045 88.7355 61.9016 88.8326Z" fill="white"/>
<path d="M91.2354 89.1841C91.3325 89.087 91.3325 88.9296 91.2354 88.8326C91.1384 88.7355 90.981 88.7355 90.8839 88.8326L89.5682 90.1483L88.2525 88.8326C88.1554 88.7355 87.998 88.7355 87.9009 88.8326C87.8039 88.9296 87.8039 89.087 87.9009 89.1841L89.2166 90.4998L87.9009 91.8155C87.8039 91.9126 87.8039 92.07 87.9009 92.1671C87.998 92.2641 88.1554 92.2641 88.2525 92.1671L89.5682 90.8514L90.8839 92.1671C90.981 92.2641 91.1384 92.2641 91.2354 92.1671C91.3325 92.07 91.3325 91.9126 91.2354 91.8155L89.9197 90.4998L91.2354 89.1841Z" fill="white"/>
<rect x="45.6797" y="107.121" width="28.7915" height="2.55203" rx="1.27601" fill="#DBE0EB"/>
<rect x="45.6797" y="112.227" width="40.7426" height="2.55203" rx="1.27601" fill="#EAEDF2"/>
<rect x="45.6797" y="119.053" width="28.125" height="9.375" rx="1.70455" fill="#6559FF"/>
<rect x="75.5078" y="119.053" width="28.125" height="9.375" rx="1.70455" fill="#EAEDF2"/>
<path fill-rule="evenodd" clip-rule="evenodd" d="M61.9016 122.072C61.9987 122.169 61.9987 122.326 61.9016 122.423L59.1672 125.158C59.0702 125.255 58.9128 125.255 58.8157 125.158L57.5728 123.915C57.4757 123.818 57.4757 123.66 57.5728 123.563C57.6699 123.466 57.8273 123.466 57.9244 123.563L58.9915 124.63L61.5501 122.072C61.6472 121.975 61.8045 121.975 61.9016 122.072Z" fill="white"/>
<path d="M91.2354 122.423C91.3325 122.326 91.3325 122.169 91.2354 122.072C91.1384 121.975 90.981 121.975 90.8839 122.072L89.5682 123.388L88.2525 122.072C88.1554 121.975 87.998 121.975 87.9009 122.072C87.8039 122.169 87.8039 122.326 87.9009 122.423L89.2166 123.739L87.9009 125.055C87.8039 125.152 87.8039 125.309 87.9009 125.406C87.998 125.503 88.1554 125.503 88.2525 125.406L89.5682 124.091L90.8839 125.406C90.981 125.503 91.1384 125.503 91.2354 125.406C91.3325 125.309 91.3325 125.152 91.2354 125.055L89.9197 123.739L91.2354 122.423Z" fill="white"/>
</g>
<circle cx="74.9993" cy="180.795" r="14.265" fill="#6559FF"/>
<path d="M78.1481 177.04C78.1481 177.731 77.9381 178.281 77.5181 178.692C77.1075 179.103 76.5988 179.383 75.9921 179.532V179.574C76.7948 179.667 77.4015 179.91 77.8121 180.302C78.2321 180.694 78.4421 181.221 78.4421 181.884C78.4421 182.463 78.2975 182.985 78.0081 183.452C77.7281 183.909 77.2895 184.273 76.6921 184.544C76.1041 184.805 75.3435 184.936 74.4101 184.936C73.3275 184.936 72.3661 184.754 71.5261 184.39V182.598C71.9555 182.813 72.4035 182.976 72.8701 183.088C73.3461 183.2 73.7848 183.256 74.1861 183.256C74.9421 183.256 75.4695 183.125 75.7681 182.864C76.0761 182.603 76.2301 182.234 76.2301 181.758C76.2301 181.478 76.1601 181.245 76.0201 181.058C75.8801 180.862 75.6328 180.717 75.2781 180.624C74.9328 180.521 74.4475 180.47 73.8221 180.47H73.0661V178.846H73.8361C74.4521 178.846 74.9188 178.79 75.2361 178.678C75.5628 178.557 75.7821 178.398 75.8941 178.202C76.0155 177.997 76.0761 177.763 76.0761 177.502C76.0761 177.147 75.9641 176.872 75.7401 176.676C75.5255 176.471 75.1615 176.368 74.6481 176.368C74.1721 176.368 73.7568 176.452 73.4021 176.62C73.0568 176.779 72.7628 176.937 72.5201 177.096L71.5401 175.64C71.9321 175.36 72.3895 175.127 72.9121 174.94C73.4441 174.753 74.0741 174.66 74.8021 174.66C75.8288 174.66 76.6408 174.87 77.2381 175.29C77.8448 175.701 78.1481 176.284 78.1481 177.04Z" fill="white"/>
<defs>
<filter id="filter0_d_10276_44966" x="33.7386" y="11.8257" width="81.8196" height="132.102" filterUnits="userSpaceOnUse" color-interpolation-filters="sRGB">
<feFlood flood-opacity="0" result="BackgroundImageFix"/>
<feColorMatrix in="SourceAlpha" type="matrix" values="0 0 0 0 0 0 0 0 0 0 0 0 0 0 0 0 0 0 127 0" result="hardAlpha"/>
<feOffset dy="2.55682"/>
<feGaussianBlur stdDeviation="2.13068"/>
<feComposite in2="hardAlpha" operator="out"/>
<feColorMatrix type="matrix" values="0 0 0 0 0.175444 0 0 0 0 0.107708 0 0 0 0 0.5875 0 0 0 0.15 0"/>
<feBlend mode="normal" in2="BackgroundImageFix" result="effect1_dropShadow_10276_44966"/>
<feBlend mode="normal" in="SourceGraphic" in2="effect1_dropShadow_10276_44966" result="shape"/>
</filter>
<linearGradient id="paint0_linear_10276_44966" x1="18.3138" y1="1.04102" x2="117.253" y2="149.336" gradientUnits="userSpaceOnUse">
<stop stop-color="#6559FF" stop-opacity="0.26"/>
<stop offset="1" stop-color="#6559FF" stop-opacity="0"/>
</linearGradient>
</defs>
</svg>
