<svg width="150" height="196" viewBox="0 0 150 196" fill="none" xmlns="http://www.w3.org/2000/svg">
<g clip-path="url(#clip0_10276_44847)">
<circle cx="74.9993" cy="75.1887" r="74.1477" fill="url(#paint0_linear_10276_44847)"/>
<g filter="url(#filter0_d_10276_44847)">
<g clip-path="url(#clip1_10276_44847)">
<rect x="97.7188" y="54.2236" width="42.7977" height="42.7977" rx="21.3989" fill="#D7F4FF"/>
<path d="M113.907 63.5989C114.759 59.3375 118.45 60.4739 119.87 60.6159C123.281 58.2293 127.112 61.468 127.112 62.7469C129.674 63.1728 130.242 66.0137 129.674 67.008C133.765 67.3489 133.083 72.1213 131.8 72.5475C133.845 75.2747 133.504 78.3713 131.8 78.9395C128.817 78.9395 117.299 81.1574 113.907 81.4963C109.645 81.9222 110.315 79.2563 109.64 77.2353C108.502 73.8262 110.641 71.2693 111.35 70.8432C110.498 68.7125 111.915 67.2924 112.626 66.5822C111.776 65.7296 112.628 63.5989 113.907 63.5989Z" fill="#1F2533"/>
<path d="M112.901 101.949C113.699 103.46 121.976 103.46 123.373 103.46C123.506 103.46 123.644 103.46 123.786 103.461C126.958 103.465 134.508 104.078 135.313 101.949C136.128 99.7959 141.87 94.9123 141.818 92.4474C141.717 87.6455 140.061 86.3581 136.382 82.1396C131.44 76.4738 130.054 76.9056 122.176 76.4738C117.908 76.2399 112.708 77.5467 110.873 78.5137C109.038 79.4808 107.79 81.3683 106.294 83.9875C104.798 86.6066 102.258 92.8351 102.258 92.8351L110.873 97.2978C110.913 99.648 111.123 101.051 112.901 101.949Z" fill="#6559FF"/>
<path d="M124.799 77.2355L124.107 71.2695C124.49 71.2695 125.779 71.1088 125.773 69.565C125.768 68.1655 124.305 67.9083 123.791 68.294C123.791 68.294 121.862 69.0653 119.677 66.7512C118.421 65.4214 118.648 63.9229 118.648 63.9229C118.134 65.4656 117.093 66.6363 115.512 67.0105C115.416 67.1509 115.282 68.1333 115.512 70.9403C115.742 73.7472 117.48 74.7722 118.103 74.6786L118.103 78.5139C120.978 79.7489 123.841 78.1711 124.799 77.2355Z" fill="#B9722B"/>
<circle cx="124.134" cy="71.2693" r="0.852273" fill="#FDD600"/>
<path d="M122.789 71.6953C120.658 74.2521 118.677 74.6783 118.102 74.6783L118.095 76.2648C120.706 75.9326 122.641 72.7568 122.789 71.6953Z" fill="#A4580C"/>
</g>
<rect x="97.7188" y="54.2236" width="42.7977" height="42.7977" rx="21.3989" stroke="white" stroke-width="1.30655"/>
</g>
<g filter="url(#filter1_d_10276_44847)">
<g clip-path="url(#clip2_10276_44847)">
<rect x="68.5547" y="54.2236" width="42.7977" height="42.7977" rx="21.3989" fill="#FFFBDC"/>
<path d="M93.4541 69.1386C91.4086 71.5249 94.0223 74.9624 95.5848 76.3829C95.5848 76.3829 96.5259 73.8258 96.8646 72.1216C97.2877 69.9932 97.2907 66.5814 97.2907 66.5814C97.0067 65.587 95.4996 66.7522 93.4541 69.1386Z" fill="#A3580F"/>
<ellipse cx="77.6865" cy="99.8392" rx="5.331" ry="1.46534" transform="rotate(20.0277 77.6865 99.8392)" fill="#605ADE"/>
<rect width="6.83448" height="15.3336" transform="matrix(-0.843658 -0.53688 -0.53688 0.843658 85.0781 94.2764)" fill="#EEBFA2"/>
<path d="M85.7931 66.5379C82.2879 65.7814 81.1827 65.1472 81.1016 64.877C83.4384 63.6882 88.3084 64.2863 90.418 64.7817C90.3368 65.6823 89.2982 67.2945 85.7931 66.5379Z" fill="#00AFD6"/>
<path d="M82.7675 112.429C82.33 112.202 82.0292 111.791 81.8838 111.32C80.5795 107.1 80.0271 103.296 79.8326 100.258C77.7421 99.0883 75.4371 98.3272 73.0399 98.0282L72.625 97.9764C72.625 97.9764 72.8517 96.3339 74.3402 93.3023C74.6848 92.6005 75.0072 91.9152 75.3235 91.2425C76.3739 89.0095 77.3586 86.9159 78.874 84.8216C80.6528 82.3634 82.1931 81.4966 83.8976 81.0704C85.6022 80.6443 89.8635 80.2179 89.8635 80.2179H98.3863C100.843 80.169 108.187 80.6439 109.466 86.6098C110.137 88.287 108.145 92.9946 107.682 97.7525C107.344 101.234 106.952 105.256 106.876 109.405C106.859 110.311 106.487 111.193 105.737 111.701C99.2243 116.113 87.2268 114.744 82.7675 112.429Z" fill="#01D0FF"/>
<rect width="4.5637" height="2.33119" rx="0.237195" transform="matrix(-0.995656 -0.0931033 -0.0931033 0.995656 87.8047 89.5928)" fill="#F0FBFF"/>
<path d="M88.3438 69.9915C88.3438 67.8733 90.0608 66.1562 92.179 66.1562C94.2971 66.1562 96.0142 67.8733 96.0142 69.9915V80.2187C96.0142 82.3369 94.2971 83.2017 92.179 83.2017C90.0608 83.2017 88.3438 82.3369 88.3438 80.2187V69.9915Z" fill="#FFCDAE"/>
<path fill-rule="evenodd" clip-rule="evenodd" d="M88.3438 78.4069V70.4541H93.4964C94.4086 70.4541 94.8366 71.4018 94.9367 71.8756L95.1607 74.2527C94.1148 76.0163 89.9863 79.8614 88.3438 78.4069Z" fill="#E5AE8C"/>
<circle cx="96.017" cy="71.27" r="1.70455" fill="#FFCDAE"/>
<path d="M93.4066 75.788C88.4915 78.8943 86.8105 76.2858 86.6399 74.5933L86.6094 69.6781L86.636 66.1556C88.615 67.4499 93.1947 65.7295 94.3065 65.7295C95.4182 65.7295 95.162 66.6783 95.162 68.6944V72.7266V74.5933L93.4066 75.788Z" fill="#FFCDAE"/>
<path d="M85.3645 67.8609C85.3645 69.4529 86.1715 70.2666 86.6454 70.4169V67.0087C87.0691 69.1393 91.3304 67.8609 93.4611 67.0087C93.4611 67.0087 93.0374 69.1385 95.1333 70.2947C95.2319 70.2514 95.5917 69.5655 96.444 69.5655C97.2963 67.0095 97.2988 67.8609 97.432 65.9858C97.5294 64.6145 96.8398 62.9933 95.5308 63.0229C93.6455 60.5341 88.91 61.035 88.1963 62.2814C87.4825 63.5278 85.9662 63.7643 85.1783 64.2525C84.0746 65.4439 84.4249 67.3881 85.3645 67.8609Z" fill="#A3580E"/>
<path d="M91.3236 65.1533C93.8804 65.3037 96.3013 67.1753 97.2913 67.8605C97.5389 66.8327 98.1416 64.4514 96.0128 62.3208C95.0306 61.3377 92.4008 60.6162 90.4702 60.6162C87.9134 60.6162 86.6049 62.3406 86.2088 63.1726C86.0603 63.2705 85.3566 63.2953 83.652 63.5988C81.8976 63.9111 81.4549 64.4686 81.0952 64.8772C82.3736 64.451 83.6862 64.2723 86.0623 65.1533C88.4383 66.0343 89.5446 65.0487 91.3236 65.1533Z" fill="#01D0FF"/>
</g>
<rect x="68.5547" y="54.2236" width="42.7977" height="42.7977" rx="21.3989" stroke="white" stroke-width="1.29917"/>
</g>
<g filter="url(#filter2_d_10276_44847)">
<g clip-path="url(#clip3_10276_44847)">
<rect x="39.3906" y="54.2236" width="42.7977" height="42.7977" rx="21.3989" fill="#D7F4FF"/>
<path d="M56.3506 65.8123L53.3906 62.7471L58.0083 63.6764L56.3506 65.8123Z" fill="#B7A400"/>
<path fill-rule="evenodd" clip-rule="evenodd" d="M55.5859 68.7124C56.4382 62.7465 58.2264 61.4568 61.1222 60.6085C62.5723 60.1836 64.1298 60.2582 65.5308 60.9925C66.9315 61.7265 68.1629 63.1131 68.9751 65.289C70.1704 68.0667 72.7205 72.368 75.7415 76.0546C77.2522 77.8981 78.8776 79.5842 80.5069 80.8483C82.1381 82.1139 83.7617 82.9476 85.2699 83.1047L85.2433 83.3604C83.6659 83.1961 81.9967 82.3296 80.3493 81.0514C78.6998 79.7716 77.0607 78.0701 75.5426 76.2175C73.9418 74.2641 72.4722 72.1386 71.2638 70.1548C72.1713 71.8762 73.2934 73.8357 74.5613 75.7543C76.0085 77.9443 77.6426 80.0767 79.3609 81.7405C81.0814 83.4065 82.8738 84.5905 84.6364 84.9059L84.7423 84.9248V85.0324C84.7423 88.7454 82.2071 93.702 77.3273 96.6796C72.439 99.6625 65.2078 100.656 55.8187 96.4633C53.4197 95.3921 52.3553 93.4181 52.1214 91.265C51.8882 89.1183 52.4785 86.7897 53.3864 84.9749C53.7117 84.3248 54.0242 83.158 54.309 81.7039C54.593 80.2543 54.5211 79.8378 54.7337 78.0874C55.1589 74.5853 54.7337 74.6783 55.5859 68.7124Z" fill="#A4580C"/>
<path d="M69.4545 66.3779L53.0271 62.7471L53.0745 62.5298L56.1069 62.3722C57.3923 60.1558 59.6844 58.7279 62.1661 58.6425C62.2757 58.1694 62.7271 57.8667 63.18 57.965L64.4202 58.2341C64.8434 58.326 65.1193 58.7358 65.074 59.1773C67.8464 60.3425 69.6033 63.2309 69.4545 66.3779Z" fill="#FFF06B"/>
<path d="M54.1959 102.101C54.9866 103.573 63.1896 103.573 64.5733 103.573C64.7051 103.573 64.842 103.573 64.9833 103.573C68.126 103.577 75.6082 104.174 76.4066 102.101C77.2144 100.003 82.9041 95.2466 82.8526 92.8458C82.7523 88.1687 81.1117 86.9147 77.4653 82.806C72.5677 77.2874 71.195 77.708 63.3873 77.2874C59.1577 77.0595 54.4331 77.5986 52.6146 78.5406C50.7961 79.4825 49.1304 82.0547 47.6479 84.6058C46.1654 87.1568 43.6484 93.2235 43.6484 93.2235L52.1858 97.5702C52.2262 99.8593 52.4338 101.226 54.1959 102.101Z" fill="#6559FF"/>
<path d="M66.2337 77.6624L65.5656 71.2703C65.9489 71.2703 67.0916 70.6835 67.0859 69.1396C67.0814 67.921 65.932 67.5322 65.232 68.0148C65.028 68.1554 64.8156 68.3003 64.5678 68.2991C63.4017 68.2938 59.8971 67.9722 58.1371 64.4521C57.2848 66.5828 56.8154 69.0474 56.9705 70.9411C57.2006 73.748 58.939 74.773 59.5619 74.6794L59.5619 78.5147C62.4371 79.7497 65.2753 78.598 66.2337 77.6624Z" fill="#FFCDAE"/>
<path d="M64.25 71.6953C62.1193 74.2521 60.1383 74.6783 59.5625 74.6783L59.5564 76.2648C62.1672 75.9326 64.1017 72.7568 64.25 71.6953Z" fill="#E5AE8C"/>
</g>
<rect x="39.3906" y="54.2236" width="42.7977" height="42.7977" rx="21.3989" stroke="white" stroke-width="1.30655"/>
</g>
<g filter="url(#filter3_d_10276_44847)">
<g clip-path="url(#clip4_10276_44847)">
<rect x="10.2266" y="54.2236" width="42.7977" height="42.7977" rx="21.2321" fill="#FFFBDC"/>
<path fill-rule="evenodd" clip-rule="evenodd" d="M0.865513 69.9198C0.97722 69.4862 1.07185 69.1189 1.02881 68.6918C0.815609 68.582 0.448817 68.7056 0.448817 68.7056C0.383168 68.7436 0.32004 68.7864 0.260216 68.834C0.15725 68.9346 0.0307776 69.0057 -0.106484 69.0405C-0.240266 69.0399 -0.370511 68.9967 -0.4801 68.9166C-0.589523 68.8365 -0.672843 68.7233 -0.718874 68.5924C-0.841026 68.3353 -0.896571 68.0495 -0.879925 67.7632C-0.863446 67.4768 -0.775303 67.1999 -0.624457 66.9601C-0.473558 66.7201 -0.265249 66.5254 -0.0199479 66.3955C0.225407 66.2654 0.49889 66.2044 0.773798 66.2185C0.891558 66.1152 1.02804 66.0374 1.17493 65.9899C2.17043 65.6635 3.34729 66.6453 3.34729 66.6453L3.34257 66.2362C3.34257 66.2362 2.86118 65.0852 0.843533 65.01C0.540709 65.0029 0.250627 64.8803 0.0285853 64.6655C-0.0437109 64.6037 -0.10204 64.5259 -0.141874 64.4378C-0.181542 64.3497 -0.201926 64.2533 -0.201368 64.1558C-0.16768 63.6475 0.183818 63.5389 1.44552 63.5666C2.70712 63.5941 3.92345 64.0573 4.39888 64.7755C4.63293 65.1031 4.84378 65.4479 5.02997 65.8069C5.02997 65.8069 5.19871 62.1254 5.21048 61.8937C5.27328 61.2215 5.60849 60.682 6.04173 60.6769C6.32118 60.6711 6.67156 60.8828 6.63141 61.6659C6.59638 62.3475 7.07935 69.3557 7.07935 69.3557L7.08574 69.889C7.40716 70.8333 8.12962 70.2527 8.53702 69.9253C8.56056 69.9064 8.58306 69.8883 8.60436 69.8714C8.68482 69.8077 8.78673 69.7188 8.90388 69.6168L8.90408 69.6166L8.90409 69.6166C9.50072 69.0967 10.4922 68.2328 11.0553 68.5761C11.4681 68.8279 10.5154 70.0834 9.8156 71.0056C9.54634 71.3605 9.31454 71.6659 9.21239 71.8459C8.99155 72.2349 8.7637 73.0678 8.53727 73.8956L8.53726 73.8956C8.38673 74.4459 8.23683 74.9939 8.09003 75.4076C7.95038 75.8013 7.87888 76.4441 7.84667 77.1032L8.83482 85.1682C8.83482 85.1682 9.80391 91.0417 13.3267 92.9367C12.6955 94.0154 11.7791 94.8811 10.6874 95.43C9.59583 95.9788 8.37524 96.1876 7.17261 96.0308C5.75157 95.8471 4.43317 95.1639 3.43499 94.0939C2.43676 93.0241 1.81852 91.6312 1.68208 90.1456L1.19182 74.9678L1.12912 74.2754C1.09977 74.1668 1.05929 74.0418 1.01369 73.9009L1.01369 73.9009C0.8055 73.2579 0.4905 72.2849 0.638944 71.0372C0.691546 70.595 0.783169 70.2394 0.865513 69.9198Z" fill="#B9722B"/>
<path d="M20.0858 111.679C21.1169 113.624 31.8141 113.624 33.6185 113.624C33.7904 113.624 33.9689 113.624 34.1532 113.625C38.2514 113.631 45.2078 113.641 46.249 110.901C47.3023 108.129 45.5595 103.894 45.4924 100.721C45.4527 98.8474 45.4131 96.9764 45.6046 95.1948V89.7485C45.6046 88.322 45.8161 86.5153 45.9968 84.9721C46.1315 83.8219 46.249 82.8182 46.249 82.2275C45.9968 81.3198 42.2536 79.4413 32.0719 78.8855C26.5563 78.5844 20.3951 79.2968 18.0237 80.5417C15.6523 81.7866 12.6107 85.0806 10.6775 88.4521C10.6775 88.4521 10.6966 84.6915 10.3531 83.1355C10.0096 81.5794 8.80653 81.4497 8.80653 81.4497L8.11458 78.8857C4.37699 79.7935 1.07355 78.7266 1.07355 78.7266L0.944663 80.931C0.944663 80.931 -1.95313 82.0981 -1.95312 84.3025C-1.95312 86.507 -1.43767 100.252 1.7844 102.975C6.11931 106.639 13.4663 105.39 16.3018 100.721C16.3545 103.747 17.7878 110.523 20.0858 111.679Z" fill="#00D1FF"/>
<path d="M27.7623 69.7873C27.8566 67.6704 29.6191 66.0321 31.6989 66.128C33.7789 66.224 35.3885 68.0179 35.2941 70.1348V72.5897L35.366 76.6962L35.2941 79.5783C35.1998 81.6954 33.0227 83.1989 30.9428 83.103C28.863 83.0068 27.2534 81.2129 27.3477 79.096L27.7623 69.7873Z" fill="#B9722B"/>
<path fill-rule="evenodd" clip-rule="evenodd" d="M27.3438 79.2919L27.7395 70.4062L33.0297 70.6504C33.9384 70.6923 34.321 71.6916 34.3988 72.1861L34.2446 75.6513C33.1965 77.3079 29.2058 80.3091 27.3438 79.2919Z" fill="#A4580C"/>
<path d="M25.5625 73.5719V65.1657C25.5959 64.793 26.0205 64.5781 26.3743 64.7C28.6664 65.4891 32.0248 64.3496 33.1515 64.3496C34.4069 64.3496 35.1337 64.9209 35.1337 67.1245V71.5316V73.5719L33.1515 74.8777C27.6014 78.2729 25.7552 75.4218 25.5625 73.5719Z" fill="#B9722B"/>
<path d="M24.5281 66.1976C23.8627 68.712 25.1412 69.9904 25.5673 70.3695L25.7837 66.3221L25.966 65.4607C27.7063 67.5757 33.0341 65.9153 34.4495 65.3183C34.4495 65.3183 33.6586 68.0811 35.144 70.5606C35.252 70.5132 35.6352 70.2027 36.2019 70.3695C36.8852 67.9141 37.2533 64.4689 37.2533 64.4689C37.2533 64.4689 37.5409 61.5644 35.5793 61.6677C33.5148 58.9432 29.6183 59.5337 27.5476 60.856C25.4769 62.1782 25.0313 61.1009 24.1686 61.6352C22.96 62.9394 23.4991 65.6801 24.5281 66.1976Z" fill="#1F2533"/>
<circle cx="35.7905" cy="70.4165" r="1.70455" fill="#B9722B"/>
<path d="M26.5692 72.8629C27.8998 71.7061 30.6806 71.695 31.9708 72.9791C34.0897 73.3995 34.5158 67.8597 34.5158 67.8597L35.3679 67.4336C35.4959 69.0988 35.7942 73.3995 34.7574 75.0978C33.7011 76.8279 31.6551 77.9913 29.9637 77.9913C28.0988 77.9913 26.5692 78.1214 25.6736 76.1495C24.9572 74.5719 25.2683 70.146 25.5669 69.1381V71.695C25.5669 72.665 26.5692 72.8629 26.5692 72.8629Z" fill="#1F2533"/>
<path d="M44.7248 81.3451C48.7419 80.8187 61.6864 109.194 62.7696 112.162C63.8529 115.13 62.5295 117.104 62.0834 117.686L62.7696 118.875C62.7696 119.143 62.972 119.551 60.7501 121.021C58.5282 122.49 56.944 122.348 56.4297 122.093L55.0628 120.231C54.5611 120.151 52.2882 120.228 50.5225 117.85C50.4427 117.743 50.3793 117.623 50.3303 117.498L45.672 105.665C46.0834 107.222 42.2258 110.733 40.3125 111.407L44.7248 81.3451Z" fill="#00D1FF"/>
<path d="M35.3714 76.6953C35.1559 78.3279 32.5702 79.7262 31.0604 80.8316C30.2545 81.4217 30.0017 82.365 29.9411 83.1162C29.8595 82.2304 29.6316 81.0818 29.0115 80.5811C27.9331 79.7103 27.5208 79.7643 27.4169 78.12C26.9403 78.2913 26.196 79.0264 25.8841 80.9448C26.1007 82.4292 27.0709 83.7336 29.982 84.2817C33.413 84.2817 36.7927 82.0815 37.3125 80.2545C37.3125 79.1045 36.4111 76.6953 35.3714 76.6953Z" fill="#00D1FF"/>
<path fill-rule="evenodd" clip-rule="evenodd" d="M26.845 67.1788C25.8676 67.1788 25.0752 67.9711 25.0752 68.9485C25.0752 69.9259 25.8676 70.7182 26.845 70.7182C27.8224 70.7182 28.6147 69.9259 28.6147 68.9485C28.6147 67.9711 27.8224 67.1788 26.845 67.1788ZM24.7109 68.9485C24.7109 67.7699 25.6664 66.8145 26.845 66.8145C27.8615 66.8145 28.712 67.5252 28.9267 68.4768C29.0585 68.3759 29.2233 68.3159 29.4021 68.3159C29.5781 68.3159 29.7406 68.374 29.8713 68.472C30.0878 67.5228 30.9371 66.8145 31.952 66.8145C33.1306 66.8145 34.086 67.7699 34.086 68.9485C34.086 70.1271 33.1306 71.0825 31.952 71.0825C30.8238 71.0825 29.9002 70.2072 29.8231 69.0987H29.8206C29.8206 68.8676 29.6332 68.6802 29.4021 68.6802C29.171 68.6802 28.9837 68.8676 28.9837 69.0987H28.9738C28.8968 70.2072 27.9731 71.0825 26.845 71.0825C25.6664 71.0825 24.7109 70.1271 24.7109 68.9485ZM30.1822 68.9485C30.1822 67.9711 30.9746 67.1788 31.952 67.1788C32.9294 67.1788 33.7217 67.9711 33.7217 68.9485C33.7217 69.9259 32.9294 70.7182 31.952 70.7182C30.9746 70.7182 30.1822 69.9259 30.1822 68.9485Z" fill="#FFF06B"/>
</g>
<rect x="10.2266" y="54.2236" width="42.7977" height="42.7977" rx="21.2321" stroke="white" stroke-width="1.28017"/>
</g>
</g>
<circle cx="74.9993" cy="180.795" r="14.265" fill="#6559FF"/>
<path d="M76.7761 184.796H74.6621V179.014C74.6621 178.771 74.6668 178.454 74.6761 178.062C74.6948 177.67 74.7088 177.325 74.7181 177.026C74.6715 177.082 74.5688 177.185 74.4101 177.334C74.2608 177.474 74.1208 177.6 73.9901 177.712L72.8421 178.636L71.8201 177.362L75.0401 174.8H76.7761V184.796Z" fill="white"/>
<defs>
<filter id="filter0_d_10276_44847" x="83.8406" y="41.9039" width="70.5532" height="70.5483" filterUnits="userSpaceOnUse" color-interpolation-filters="sRGB">
<feFlood flood-opacity="0" result="BackgroundImageFix"/>
<feColorMatrix in="SourceAlpha" type="matrix" values="0 0 0 0 0 0 0 0 0 0 0 0 0 0 0 0 0 0 127 0" result="hardAlpha"/>
<feOffset dy="1.55552"/>
<feGaussianBlur stdDeviation="6.61095"/>
<feComposite in2="hardAlpha" operator="out"/>
<feColorMatrix type="matrix" values="0 0 0 0 0.190972 0 0 0 0 0.307765 0 0 0 0 0.833333 0 0 0 0.17 0"/>
<feBlend mode="normal" in2="BackgroundImageFix" result="effect1_dropShadow_10276_44847"/>
<feBlend mode="normal" in="SourceGraphic" in2="effect1_dropShadow_10276_44847" result="shape"/>
</filter>
<filter id="filter1_d_10276_44847" x="54.7591" y="41.9738" width="70.3881" height="70.3911" filterUnits="userSpaceOnUse" color-interpolation-filters="sRGB">
<feFlood flood-opacity="0" result="BackgroundImageFix"/>
<feColorMatrix in="SourceAlpha" type="matrix" values="0 0 0 0 0 0 0 0 0 0 0 0 0 0 0 0 0 0 127 0" result="hardAlpha"/>
<feOffset dy="1.54673"/>
<feGaussianBlur stdDeviation="6.5736"/>
<feComposite in2="hardAlpha" operator="out"/>
<feColorMatrix type="matrix" values="0 0 0 0 0.190972 0 0 0 0 0.307765 0 0 0 0 0.833333 0 0 0 0.17 0"/>
<feBlend mode="normal" in2="BackgroundImageFix" result="effect1_dropShadow_10276_44847"/>
<feBlend mode="normal" in="SourceGraphic" in2="effect1_dropShadow_10276_44847" result="shape"/>
</filter>
<filter id="filter2_d_10276_44847" x="25.5125" y="41.9039" width="70.5532" height="70.5483" filterUnits="userSpaceOnUse" color-interpolation-filters="sRGB">
<feFlood flood-opacity="0" result="BackgroundImageFix"/>
<feColorMatrix in="SourceAlpha" type="matrix" values="0 0 0 0 0 0 0 0 0 0 0 0 0 0 0 0 0 0 127 0" result="hardAlpha"/>
<feOffset dy="1.55552"/>
<feGaussianBlur stdDeviation="6.61095"/>
<feComposite in2="hardAlpha" operator="out"/>
<feColorMatrix type="matrix" values="0 0 0 0 0.190972 0 0 0 0 0.307765 0 0 0 0 0.833333 0 0 0 0.17 0"/>
<feBlend mode="normal" in2="BackgroundImageFix" result="effect1_dropShadow_10276_44847"/>
<feBlend mode="normal" in="SourceGraphic" in2="effect1_dropShadow_10276_44847" result="shape"/>
</filter>
<filter id="filter3_d_10276_44847" x="-3.36898" y="42.1532" width="69.988" height="69.987" filterUnits="userSpaceOnUse" color-interpolation-filters="sRGB">
<feFlood flood-opacity="0" result="BackgroundImageFix"/>
<feColorMatrix in="SourceAlpha" type="matrix" values="0 0 0 0 0 0 0 0 0 0 0 0 0 0 0 0 0 0 127 0" result="hardAlpha"/>
<feOffset dy="1.52411"/>
<feGaussianBlur stdDeviation="6.47746"/>
<feComposite in2="hardAlpha" operator="out"/>
<feColorMatrix type="matrix" values="0 0 0 0 0.190972 0 0 0 0 0.307765 0 0 0 0 0.833333 0 0 0 0.17 0"/>
<feBlend mode="normal" in2="BackgroundImageFix" result="effect1_dropShadow_10276_44847"/>
<feBlend mode="normal" in="SourceGraphic" in2="effect1_dropShadow_10276_44847" result="shape"/>
</filter>
<linearGradient id="paint0_linear_10276_44847" x1="18.3138" y1="1.04102" x2="117.253" y2="149.336" gradientUnits="userSpaceOnUse">
<stop stop-color="#6559FF" stop-opacity="0.26"/>
<stop offset="1" stop-color="#6559FF" stop-opacity="0"/>
</linearGradient>
<clipPath id="clip0_10276_44847">
<rect width="150" height="150" fill="white" transform="translate(0 0.530273)"/>
</clipPath>
<clipPath id="clip1_10276_44847">
<rect x="97.7188" y="54.2236" width="42.7977" height="42.7977" rx="21.3989" fill="white"/>
</clipPath>
<clipPath id="clip2_10276_44847">
<rect x="68.5547" y="54.2236" width="42.7977" height="42.7977" rx="21.3989" fill="white"/>
</clipPath>
<clipPath id="clip3_10276_44847">
<rect x="39.3906" y="54.2236" width="42.7977" height="42.7977" rx="21.3989" fill="white"/>
</clipPath>
<clipPath id="clip4_10276_44847">
<rect x="10.2266" y="54.2236" width="42.7977" height="42.7977" rx="21.2321" fill="white"/>
</clipPath>
</defs>
</svg>
