<svg width="176" height="88" viewBox="0 0 176 88" fill="none" xmlns="http://www.w3.org/2000/svg">
<path d="M78.3498 34.9569C80.6439 35.8203 82.1927 37.3183 82.1927 37.3183C82.2462 36.5693 82.422 35.8202 82.6513 35.2446C82.6513 35.2446 81.9022 33.805 79.7258 32.3077C77.3751 30.6954 74.6804 30.2349 74.6804 30.2349C74.1063 31.4435 73.705 32.7106 73.533 34.0352C73.533 34.0352 75.4831 33.8626 78.3498 34.9569Z" fill="#100E20"/>
<path d="M80.0118 30.1846C82.2448 32.3725 83.0474 34.5612 83.0474 34.5612C83.4526 33.8698 83.9648 33.2942 84.6527 32.833C84.6527 32.833 83.7966 30.2422 82.4741 28.3413C81.1592 26.3836 78.9789 24.8287 78.9789 24.8287C77.8896 25.6346 76.9723 26.6138 76.1695 27.6506C76.1695 27.6506 78.3483 28.6291 80.0118 30.1846Z" fill="#100E20"/>
<path d="M83.9092 27.4709C84.9412 30.0618 85.1705 32.5382 85.1705 32.5382C85.8585 32.1929 86.7147 31.9051 87.4639 31.8476C87.4639 31.8476 87.5174 29.3711 86.944 26.7796C86.3172 23.7851 85.6292 22 85.6292 22C84.3067 22.1151 83.0453 22.518 81.8451 23.0368C81.8451 23.0368 83.2212 25.6852 83.9092 27.4709Z" fill="#100E20"/>
<path d="M97.0392 34.9569C94.7451 35.8203 93.1963 37.3183 93.1963 37.3183C93.1428 36.5693 92.967 35.8202 92.7376 35.2446C92.7376 35.2446 93.4868 33.805 95.6632 32.3077C98.0139 30.6954 100.709 30.2349 100.709 30.2349C101.283 31.4435 101.684 32.7106 101.856 34.0352C101.856 34.0352 99.9059 33.8626 97.0392 34.9569Z" fill="#100E20"/>
<path d="M95.3772 30.1846C93.1442 32.3725 92.3415 34.5612 92.3415 34.5612C91.9364 33.8698 91.4242 33.2942 90.7362 32.833C90.7362 32.833 91.5924 30.2422 92.9149 28.3413C94.2297 26.3836 96.41 24.8287 96.41 24.8287C97.4994 25.6346 98.4167 26.6138 99.2194 27.6506C99.2194 27.6506 97.0406 28.6291 95.3772 30.1846Z" fill="#100E20"/>
<path d="M91.4798 27.4709C90.4478 30.0618 90.2185 32.5382 90.2185 32.5382C89.5305 32.1929 88.6743 31.9051 87.9251 31.8476C87.9251 31.8476 87.8716 29.3711 88.4449 26.7796C89.0718 23.7851 89.7598 22 89.7598 22C91.0823 22.1151 92.3436 22.518 93.5439 23.0368C93.5439 23.0368 92.1678 25.6852 91.4798 27.4709Z" fill="#100E20"/>
<path d="M80.2458 43.7178C83.0522 42.3932 85.8653 42.681 85.8653 42.681C84.8333 42.2781 83.9695 41.645 83.3427 40.8384C83.3427 40.8384 80.8735 40.5506 78.9838 40.896C76.0598 41.5291 74.7984 42.5082 74.7984 42.5082C75.3717 43.7177 76.117 44.8696 77.0344 45.8489C77.0344 45.8489 78.1811 44.697 80.2458 43.7178Z" fill="#100E20"/>
<path d="M95.143 43.7178C92.3367 42.3932 89.5235 42.681 89.5235 42.681C90.5555 42.2781 91.4193 41.645 92.0462 40.8384C92.0462 40.8384 94.5154 40.5506 96.4051 40.896C99.329 41.5291 100.59 42.5082 100.59 42.5082C100.017 43.7177 99.2718 44.8696 98.3545 45.8489C98.3545 45.8489 97.2078 44.697 95.143 43.7178Z" fill="#100E20"/>
<path d="M78.1157 39.507C80.9266 39.3919 82.8759 40.1409 82.8759 40.1409C82.5319 39.507 82.3026 38.7588 82.2414 38.0097C82.2414 38.0097 79.9511 36.7427 77.8863 36.455C75.0196 36.0521 73.3562 36.6276 73.3562 36.6276C73.4135 37.9522 73.5855 39.2767 73.9869 40.5437C73.9869 40.5437 75.8223 39.6221 78.1157 39.507Z" fill="#100E20"/>
<path d="M97.2731 39.507C94.4622 39.3919 92.5129 40.1409 92.5129 40.1409C92.8569 39.507 93.0863 38.7588 93.1474 38.0097C93.1474 38.0097 95.4378 36.7427 97.5026 36.455C100.369 36.0521 102.033 36.6276 102.033 36.6276C101.975 37.9522 101.803 39.2767 101.402 40.5437C101.402 40.5437 99.5665 39.6221 97.2731 39.507Z" fill="#100E20"/>
<path d="M87.7483 45.9051C91.8229 45.9051 93.604 49.4175 93.604 49.4175C94.8653 48.842 96.0121 48.1505 97.0975 47.2288C97.0975 47.2288 93.6575 42.9098 87.7482 42.9098C81.9001 42.9098 78.4625 47.2288 78.4625 47.2288C79.4945 48.1505 80.6993 48.8419 81.9613 49.4175C81.9613 49.4175 83.7349 45.905 87.7483 45.9051Z" fill="#100E20"/>
<path d="M30.8675 54.8883V60.0715H32.9888C35.2829 60.0715 36.3149 59.1498 36.3149 57.4799C36.3149 55.81 35.3402 54.8884 32.9888 54.8884L30.8675 54.8883ZM30.8675 64.6207H32.3582V65.8302H28V64.6207H29.4907L29.4907 54.8307H28V53.6788L32.9888 53.6788C35.7415 53.6788 37.6336 54.8883 37.6336 57.4798C37.6336 60.0714 35.7415 61.2801 32.9888 61.2801H30.8675L30.8675 64.6207Z" fill="#100E20"/>
<path d="M45.6612 60.9893C45.6612 59.377 44.4572 58.1099 42.7946 58.1099C41.1319 58.1099 39.9271 59.3769 39.9271 60.9893H45.6612ZM46.694 63.3507C46.2926 64.8479 44.9158 65.9998 42.7945 65.9998C40.2137 65.9998 38.6084 64.3874 38.6084 61.4497C38.6084 58.6862 40.271 56.9005 42.7945 56.9005C45.5465 56.9005 47.2672 59.0316 46.9233 62.1412L39.927 62.1412C40.0417 63.4658 40.9598 64.8479 42.7945 64.848C43.9985 64.848 44.8585 64.3292 45.3171 63.3508L46.694 63.3507Z" fill="#100E20"/>
<path d="M51.396 64.675H52.7727V65.8269L48.7013 65.8269V64.675H50.0773V58.2248H48.7013V57.1304H51.2813V58.3399C51.7973 57.419 53.0595 56.5548 54.7795 57.1304V58.3974C52.7155 57.8218 51.396 58.9162 51.396 60.9314V64.675Z" fill="#100E20"/>
<path d="M133.76 64.675H135.136V65.8269L131.065 65.8269V64.675H132.441V58.2248H131.065V57.1304H133.645V58.3399C134.161 57.419 135.423 56.5548 137.143 57.1304V58.3974C135.079 57.8218 133.76 58.9162 133.76 60.9314V64.675Z" fill="#100E20"/>
<path d="M64.8673 64.675H66.2433L66.2433 65.8269H62.2291V64.675H63.6058L63.6058 60.9891C63.6058 58.9738 62.401 58.1097 61.025 58.1097C59.7063 58.1097 58.5597 59.0313 58.5597 61.1042V64.675H59.9357V65.8269H55.9215V64.675H57.2976V58.2248H55.9215V57.1304L58.5023 57.1304V58.3399C58.961 57.6492 59.9357 56.9578 61.3117 56.9578C63.2045 56.9578 64.8673 58.0521 64.8673 60.9891V64.675Z" fill="#100E20"/>
<path d="M71.6438 64.8481C73.3638 64.8481 74.5686 63.6386 74.5686 61.4499C74.5686 59.262 73.3638 58.1101 71.6438 58.1101C69.9811 58.1101 68.7198 59.262 68.7198 61.4499C68.7198 63.6386 69.981 64.8481 71.6438 64.8481ZM71.6437 56.9007C74.3391 56.9007 75.8872 58.8592 75.8872 61.4499C75.8872 64.099 74.3391 66 71.6437 66C69.0064 66 67.4576 64.0991 67.4576 61.4499C67.4576 58.8591 69.0064 56.9007 71.6437 56.9007Z" fill="#100E20"/>
<path d="M78.6895 61.449C78.6895 63.6953 80.009 64.8472 81.615 64.8472C83.2203 64.8472 84.5353 63.6953 84.5353 61.449C84.5353 59.2611 83.2205 58.1092 81.615 58.1092C80.0089 58.1092 78.6895 59.2611 78.6895 61.449ZM85.7431 64.6745H87.1191V65.8264H84.5353V64.5594C84.0231 65.3652 82.8764 65.9991 81.5005 65.9991C79.0336 65.9991 77.4282 64.0407 77.4282 61.449C77.4282 58.8582 79.0335 56.8997 81.5005 56.8997C82.8153 56.8998 83.9085 57.4761 84.4818 58.3394V54.7694L83.1058 54.7694V53.6175H85.7431V64.6745Z" fill="#100E20"/>
<path d="M139.57 61.449C139.57 63.6953 140.89 64.8472 142.496 64.8472C144.101 64.8472 145.416 63.6953 145.416 61.449C145.416 59.2611 144.101 58.1092 142.496 58.1092C140.89 58.1092 139.57 59.2611 139.57 61.449ZM146.624 64.6745H148V65.8264H145.416V64.5594C144.904 65.3652 143.757 65.9991 142.381 65.9991C139.914 65.9991 138.309 64.0407 138.309 61.449C138.309 58.8581 139.914 56.8997 142.381 56.8997C143.696 56.8998 144.789 57.4761 145.363 58.3394V54.7694L143.987 54.7694V53.6175H146.624V64.6745Z" fill="#100E20"/>
<path d="M95.7772 54.8883V59.38H98.5827C100.417 59.38 101.167 58.5158 101.167 57.1337C101.167 55.8098 100.417 54.8883 98.5827 54.8883H95.7772ZM92.9105 53.6213H98.5827C100.876 53.6213 102.543 54.8883 102.543 57.1337C102.543 59.0922 101.335 60.2441 99.5613 60.5894L101.511 64.6207H103.116V65.8302H100.593L98.0707 60.6469H95.7773V64.6207H97.0921V65.8302L92.9106 65.8302V64.6207H94.4013L94.4013 54.8307H92.9106L92.9105 53.6213Z" fill="#100E20"/>
<path d="M105.924 55.2859H107.362V53.616H105.924V55.2859ZM107.362 64.673H108.738V65.8249H104.663V64.673H106.039V58.2228H104.663V57.1285H107.362V64.673Z" fill="#100E20"/>
<path d="M118.319 62.6585C117.86 64.617 116.538 65.9991 114.13 65.9991C111.492 65.9991 109.941 64.0982 109.941 61.449C109.941 58.8582 111.492 56.8998 114.13 56.8998C115.391 56.8998 116.538 57.5337 117.058 58.3394V57.13H118.258V60.2979H116.882C116.484 59.0885 115.674 58.1092 114.13 58.1092C112.463 58.1092 111.202 59.2611 111.202 61.449C111.202 63.6377 112.463 64.8472 114.13 64.8472C115.62 64.8472 116.599 63.9255 116.996 62.6585H118.319Z" fill="#100E20"/>
<path d="M121.186 61.449C121.186 63.6953 122.448 64.8472 124.053 64.8472C125.658 64.8472 126.973 63.6953 126.973 61.449C126.973 59.2611 125.658 58.1092 124.053 58.1092C122.448 58.1092 121.186 59.2611 121.186 61.449ZM126.92 57.13L129.557 57.13V58.2243H128.181V64.6745H129.557V65.8264H126.92V64.5594C126.4 65.4228 125.253 65.9991 123.938 65.9991C121.469 65.9991 119.864 64.0407 119.864 61.449C119.864 58.8581 121.469 56.8997 123.938 56.8997C125.253 56.8997 126.4 57.4761 126.92 58.3394L126.92 57.13Z" fill="#100E20"/>
</svg>
