<svg width="176" height="88" viewBox="0 0 176 88" fill="none" xmlns="http://www.w3.org/2000/svg">
<path fill-rule="evenodd" clip-rule="evenodd" d="M115.408 67.6606V57.3586H111.024V67.6606H115.408ZM92.203 63.383V57.5145H87.9545V62.0005C87.9545 63.3043 87.9009 63.67 87.8201 64.0091C87.5243 64.9483 86.5022 65.3647 85.4539 65.3647C84.0023 65.3647 83.3298 64.8172 83.061 63.9566C82.9803 63.6707 82.9536 63.3575 82.9266 63.0443C82.8996 62.7052 82.9266 62.3396 82.9266 61.9494V57.5149H78.6244V63.4095C78.6244 64.7403 79.0817 65.731 79.8342 66.4088C81.1247 67.6351 83.3028 68 85.3195 68C87.7661 68 89.6483 67.6609 90.9925 66.3829C91.692 65.7303 92.2023 64.8697 92.2023 63.3826L92.203 63.383ZM71.338 62.6528C71.1249 62.617 70.9091 62.5996 70.6929 62.601H65.8534C65.6112 62.601 65.342 62.6272 65.208 62.6528C65.2887 62.5741 65.4501 62.4182 65.6112 62.2095L67.789 58.7142C68.0848 58.2454 68.2193 57.9322 68.273 57.8019C68.3267 57.9322 68.4611 58.2451 68.757 58.7411L70.9888 62.2623C71.0965 62.4182 71.2579 62.5741 71.3383 62.6528H71.338ZM79.4583 67.6606L69.7786 53.5774H64.3477L65.7727 55.2203C65.7997 55.2465 65.8537 55.2721 65.9071 55.299C65.8534 55.3252 65.7997 55.3507 65.7727 55.3766L57.3301 67.6606H62.2233L63.5412 65.5478C63.5949 65.4437 63.6219 65.3391 63.6219 65.2874C63.6756 65.2874 63.8104 65.3391 63.9448 65.3391H72.6832C72.8177 65.3391 72.925 65.3129 72.9787 65.2874C72.9738 65.3606 72.9924 65.4338 73.0324 65.4961L74.404 67.6606H79.459H79.4583ZM109.842 62.3664C109.842 61.2185 109.358 59.8881 107.852 58.0364L104.222 53.577H99.1673L102.044 56.7067C102.528 57.2286 103.147 57.6973 103.147 57.6973C102.448 57.3058 101.561 57.1499 100.861 57.1499C99.1943 57.1499 97.4998 57.489 95.9949 58.2979C94.3811 59.1575 93.3054 60.5924 93.3054 62.4968C93.3054 63.957 93.9779 65.079 94.8381 65.9397C96.7744 67.8172 100.296 68 101.587 68C103.495 68 106.48 67.5826 108.175 66.0959C109.17 65.2088 109.842 63.9835 109.842 62.3668V62.3664ZM105.647 62.4968C105.647 63.5661 104.921 64.3743 104.007 64.8176C103.254 65.2091 102.366 65.3136 101.587 65.3136C100.807 65.3136 99.8931 65.157 99.1403 64.7917C98.2263 64.3485 97.5265 63.4878 97.5265 62.5486C97.5265 61.4275 98.4137 60.54 99.4628 60.0967C100.108 59.8108 100.888 59.7059 101.506 59.7059C102.123 59.7059 102.958 59.7835 103.631 60.045C104.841 60.54 105.647 61.4793 105.647 62.4968ZM114.015 20C110.867 19.9953 107.81 21.0254 105.343 22.9227C102.876 21.0254 99.819 19.9949 96.6708 20C93.523 19.9953 90.4661 21.0254 87.9995 22.9227C85.5329 21.0251 82.4759 19.9949 79.3281 20C76.1803 19.9953 73.1233 21.0254 70.6567 22.9227C68.1901 21.0254 65.1332 19.9953 61.9854 20C54.2602 20 48 26.0721 48 33.5658C48 41.0595 54.2599 47.1315 61.9854 47.1315C65.1332 47.1363 68.1901 46.1061 70.6567 44.2089C73.1233 46.1061 76.1803 47.1363 79.3281 47.1315C82.4763 47.1366 85.5329 46.1065 87.9995 44.2089C90.4661 46.1058 93.523 47.1363 96.6708 47.1315C99.819 47.1366 102.876 46.1065 105.343 44.2089C107.81 46.1061 110.867 47.1363 114.015 47.1315C121.74 47.1315 128 41.0591 128 33.5658C128 26.0724 121.74 20 114.015 20ZM68.3684 41.993C66.5862 43.2539 64.36 44.0237 61.9854 44.0237C56.0259 44.0237 51.2036 39.3464 51.2036 33.5658C51.2036 27.7851 56.0259 23.1075 61.9854 23.1075C64.36 23.1075 66.5852 23.8776 68.3684 25.1389C66.4034 27.5336 65.3368 30.5052 65.3431 33.5658C65.3445 36.6253 66.4104 39.5946 68.3684 41.993ZM70.6571 39.7794C69.2827 37.9823 68.5429 35.8031 68.5474 33.5658C68.5418 31.3281 69.2816 29.1483 70.6571 27.3521C72.0325 29.1486 72.7724 31.3281 72.7668 33.5658C72.771 35.8031 72.0311 37.9826 70.6571 39.7794ZM85.7119 41.993C83.8602 43.3152 81.6199 44.0261 79.3207 44.0206C77.0265 44.025 74.7911 43.3142 72.9447 41.993C74.9028 39.5946 75.9686 36.6253 75.97 33.5661C75.9767 30.5056 74.9098 27.5339 72.9447 25.1393C74.7908 23.8177 77.0261 23.1065 79.3207 23.1113C81.7129 23.1113 83.9226 23.8619 85.7119 25.1393C83.7468 27.5339 82.6802 30.5056 82.6865 33.5661C82.6879 36.6253 83.7538 39.5946 85.7119 41.993ZM87.9998 39.7794C86.6254 37.9823 85.8856 35.8031 85.8902 33.5658C85.8845 31.3281 86.6247 29.1486 87.9998 27.3521C89.3756 29.1486 90.1158 31.3281 90.1102 33.5658C90.1148 35.8035 89.3746 37.9826 87.9998 39.7794ZM103.055 41.993C101.266 43.2706 99.056 44.0206 96.6645 44.0206C94.273 44.0206 92.077 43.2696 90.2881 41.993C92.2462 39.5949 93.3124 36.6256 93.3135 33.5661C93.3201 30.5056 92.2532 27.5339 90.2881 25.1393C92.077 23.8623 94.273 23.1113 96.6645 23.1113C99.056 23.1113 101.266 23.8619 103.055 25.1393C101.09 27.5339 100.023 30.5056 100.03 33.5661C100.031 36.6253 101.097 39.5946 103.055 41.993ZM105.344 39.7794C103.969 37.9823 103.229 35.8031 103.234 33.5658C103.228 31.3281 103.968 29.1483 105.344 27.3521C106.719 29.1486 107.459 31.3281 107.453 33.5658C107.457 35.8031 106.718 37.9823 105.344 39.7794ZM114.015 44.0237C111.639 44.0237 109.413 43.2539 107.632 41.993C109.59 39.5946 110.656 36.6253 110.657 33.5661C110.664 30.5056 109.597 27.5339 107.632 25.1393C109.416 23.8783 111.64 23.1079 114.015 23.1079C119.973 23.1079 124.797 27.7855 124.797 33.5661C124.797 39.3467 119.973 44.0237 114.015 44.0237Z" fill="#100E20"/>
</svg>
