<svg width="176" height="88" viewBox="0 0 176 88" fill="none" xmlns="http://www.w3.org/2000/svg">
<path d="M127.644 15.5174C126.444 16.1089 125.352 16.6313 124.621 16.9566C124.358 17.075 123.89 17.282 123.597 17.4202C123.304 17.5482 122.934 17.716 122.768 17.7849C122.612 17.8639 122.125 18.0608 121.695 18.2383C121.266 18.406 120.788 18.603 120.622 18.682C120.223 18.8497 119.696 19.0568 118.721 19.4215C118.262 19.5892 117.765 19.7962 117.599 19.8651C117.444 19.9341 117.044 20.092 116.722 20.2003C116.4 20.3085 115.893 20.4961 115.6 20.6046C115.308 20.7229 114.937 20.8611 114.772 20.9004C114.616 20.9498 114.216 21.0876 113.894 21.1962C113.572 21.3145 113.182 21.4527 113.016 21.492C112.86 21.5414 112.421 21.6792 112.041 21.8174C111.67 21.9454 111.095 22.133 110.773 22.2217C110.452 22.3202 110.013 22.4584 109.798 22.5374C109.574 22.6164 109.34 22.6755 109.272 22.6755C109.204 22.6755 109.008 22.7347 108.843 22.8137C108.667 22.8927 108.336 23.0009 108.092 23.0701C107.458 23.2278 107.106 23.3364 106.775 23.4547C106.482 23.5532 105.039 23.9871 103.947 24.3027C103.625 24.3915 103.186 24.5296 102.972 24.5985C102.758 24.6674 102.319 24.8056 101.997 24.8943C101.675 24.983 101.256 25.1014 101.07 25.1605C100.885 25.2197 100.271 25.3972 99.7053 25.5548C99.1398 25.7124 98.4377 25.9097 98.1451 25.9887C97.8526 26.0677 97.4526 26.176 97.2674 26.2156C96.6727 26.3635 94.8977 26.817 94.3907 26.9551C94.1274 27.0341 93.5519 27.1622 93.123 27.2509C92.6942 27.3396 92.1479 27.4677 91.9043 27.5269C91.2314 27.6845 90.1685 27.8916 89.4371 28.0001C89.0664 28.0495 88.7349 28.1184 88.6861 28.148C88.5887 28.2072 86.7944 28.4637 85.5168 28.6015C85.039 28.6509 84.5709 28.7198 84.4928 28.7494C84.3465 28.8085 81.1772 29.0354 78.8271 29.1436C77.3254 29.2226 75.3752 29.0156 74.4779 28.6801C73.3761 28.2858 72.7714 27.6744 72.6347 26.8563C72.5666 26.4029 72.7421 25.3972 72.9469 25.0718C73.025 24.9535 73.0836 24.8056 73.0836 24.7562C73.0836 24.6281 73.8735 23.4648 74.4194 22.7744C74.9071 22.1629 76.6329 20.3687 77.218 19.8561C77.4324 19.6689 77.569 19.4914 77.5302 19.4517C77.462 19.3828 76.8184 19.5798 76.1551 19.8658C75.9992 19.9347 75.297 20.201 74.5949 20.4574C73.9024 20.7038 73.2591 20.9404 73.181 20.97C72.3714 21.2756 71.0552 21.7293 70.5479 21.8967C70.1968 22.015 69.758 22.1629 69.5728 22.2318C69.3876 22.3007 68.9877 22.4389 68.6951 22.5374C68.4026 22.6261 68.0026 22.7542 67.8174 22.8332C67.6323 22.9021 67.2323 23.0305 66.9398 23.129C66.6472 23.2177 66.2472 23.3458 66.0621 23.415C65.8769 23.4843 65.4573 23.6123 65.1355 23.7108C64.8137 23.7995 64.3945 23.9377 64.2089 24.0066C64.0234 24.0755 63.6042 24.2039 63.2824 24.3024C62.9606 24.3911 62.5217 24.5293 62.3073 24.5982C62.0929 24.6573 61.654 24.7955 61.3322 24.894C61.0104 24.9827 60.5715 25.1209 60.3571 25.1898C60.1427 25.2587 59.7038 25.3968 59.382 25.4855C59.0602 25.5743 58.6017 25.7023 58.358 25.7716C58.1144 25.8506 57.6363 25.9787 57.2852 26.0771C56.9341 26.1756 56.4564 26.304 56.2124 26.3827C55.9687 26.4516 55.5102 26.58 55.1884 26.6687C54.8666 26.7575 54.3888 26.8855 54.1155 26.9645C53.5889 27.1124 52.9553 27.27 52.4091 27.4082C51.7458 27.5561 50.01 28.0095 49.5323 28.1477C49.269 28.2267 48.6935 28.3547 48.2646 28.4532C47.8354 28.542 47.2896 28.67 47.0459 28.7393C46.8022 28.8085 46.4022 28.8969 46.1486 28.9366C45.8853 28.9662 45.6805 29.0351 45.6805 29.0845C45.6805 29.2125 46.246 29.2818 48.6546 29.4297C49.893 29.4986 50.9659 29.5873 51.0436 29.6169C51.1214 29.6465 51.6484 29.7154 52.2139 29.7745C53.5401 29.8929 55.5099 30.1493 55.6073 30.2085C55.6561 30.2381 56.0169 30.307 56.4168 30.3661C57.4212 30.5043 58.5329 30.7113 58.9914 30.8394C59.2058 30.8985 59.7324 31.0169 60.1616 31.1056C60.9126 31.2535 61.3122 31.3621 62.4436 31.6874C62.7265 31.7762 63.0191 31.8451 63.0969 31.8451C63.165 31.8451 63.3698 31.9042 63.5453 31.9832C63.7209 32.0622 64.3256 32.2693 64.8911 32.4468C65.837 32.7425 66.8706 33.1271 67.719 33.4918C69.094 34.0736 71.3857 35.2564 71.7268 35.5522C71.8049 35.6312 71.9023 35.6904 71.9412 35.6904C72.0386 35.6904 73.7158 36.844 74.5643 37.4846C76.5341 38.9831 78.2602 40.7971 79.4986 42.6707C79.83 43.1736 80.1033 43.6468 80.1033 43.7258C80.1033 43.7947 80.1422 43.8835 80.1911 43.9131C80.24 43.9524 80.3763 44.1695 80.4837 44.4159C80.6007 44.6623 80.7859 45.0666 80.9029 45.3329C81.0199 45.5893 81.2636 46.2202 81.4295 46.7328L81.7317 47.6696L87.4167 47.6992L93.0921 47.719L93.0335 47.2555C92.9946 46.9893 92.9069 46.5849 92.8287 46.3385C92.4973 45.2539 92.3606 44.0314 92.3606 42.099C92.351 40.0977 92.4484 39.4073 92.8969 38.0073C93.0821 37.4255 93.8331 35.7889 93.9501 35.6904C93.989 35.6608 94.0768 35.5327 94.1453 35.3946C94.6134 34.4874 96.1443 32.9792 97.5094 32.072C98.3286 31.5197 100.191 30.5439 101.41 30.031C101.898 29.8239 102.327 29.6169 102.376 29.5675C102.434 29.5181 102.531 29.4787 102.61 29.4787C102.688 29.4787 102.883 29.4196 103.048 29.3406C103.224 29.2616 103.731 29.0545 104.189 28.8872C104.648 28.7198 105.165 28.5124 105.34 28.4337C105.516 28.3551 105.701 28.2956 105.759 28.2956C105.818 28.2956 106.003 28.2364 106.169 28.1675C106.549 28.0099 106.93 27.862 107.895 27.5463C108.295 27.4183 108.714 27.2603 108.822 27.2112C109.046 27.1128 113.054 25.7521 113.502 25.6338C113.668 25.5844 114.107 25.4365 114.477 25.2987C114.858 25.1605 115.218 25.0422 115.287 25.0422C115.365 25.0422 115.56 24.983 115.726 24.9141C115.901 24.8352 117.091 24.4311 118.378 24.017C119.665 23.5932 120.855 23.1888 121.011 23.1199C121.177 23.051 121.587 22.9031 121.938 22.7848C123.693 22.213 123.829 22.1539 124.024 21.7989C124.083 21.6806 124.853 20.6158 125.741 19.4229C126.628 18.2299 127.398 17.1651 127.457 17.0565C127.515 16.9382 127.652 16.751 127.759 16.6327C127.993 16.3762 128.861 15.1241 128.861 15.0455C128.861 14.9369 128.714 14.9961 127.642 15.5187L127.644 15.5174ZM90.3444 32.7909C90.3444 32.8205 89.964 33.2346 89.4863 33.6981C89.0182 34.1714 88.4331 34.8221 88.1894 35.1475C87.0484 36.6755 86.1222 38.5293 85.9659 39.6335C85.927 39.9195 85.8585 40.0869 85.7515 40.1067C85.6637 40.1266 85.2738 39.7319 84.7372 39.0913C83.2647 37.3068 80.739 35.0292 79.4907 34.3489C79.2762 34.2403 79.1007 34.1025 79.1007 34.0531C79.0911 34.0037 79.9784 33.9348 81.1972 33.9052C82.3574 33.8659 83.3521 33.8067 83.401 33.7771C83.4499 33.7475 83.9861 33.6786 84.6005 33.6195C85.7512 33.5109 86.424 33.4027 87.5162 33.1661C87.8672 33.0871 88.2572 33.0279 88.3938 33.0182C88.5305 33.0182 88.8327 32.959 89.0764 32.8901C89.5348 32.7519 90.344 32.6928 90.344 32.7916L90.3444 32.7909ZM58.3398 48.0037C57.0625 48.3586 56.3604 48.8911 55.0049 50.5572C53.9614 51.8389 53.0155 52.9925 51.1531 55.26C48.9104 57.9712 47.9642 59.1345 47.5842 59.598C47.0087 60.3079 45.6825 61.9348 45.3218 62.3684C45.1463 62.5852 45 62.8121 45 62.8712C45 62.9697 45.6533 62.9993 47.9353 62.9993H50.8705L51.1242 62.7233C51.2705 62.5755 52.0019 61.6978 52.7526 60.7812C53.5036 59.8545 54.1372 59.0855 54.1665 59.0559C54.1957 59.0263 54.3909 58.7799 54.6053 58.5137C54.8198 58.2377 55.2393 57.7349 55.5319 57.3799C55.8341 57.025 56.2244 56.542 56.4096 56.2953C56.5948 56.0485 56.7995 55.8022 56.8581 55.7531C56.9166 55.6939 57.4921 55.0136 58.1354 54.2251C59.5493 52.5095 59.7152 52.3518 60.4074 51.9871C60.9143 51.7209 61.0121 51.7112 62.4845 51.6816C63.567 51.6618 64.0155 51.6816 64.0155 51.7606C64.0155 51.8198 63.4596 52.5394 62.7867 53.3676C62.1042 54.1958 61.3924 55.0634 61.1973 55.3C60.6218 56.0002 60.1244 56.6112 59.6371 57.1732C59.3934 57.4593 59.1493 57.7746 59.1008 57.8633C59.0523 57.952 58.7301 58.3564 58.379 58.7604C57.4332 59.8844 57.2673 60.0814 56.9262 60.4955C56.7603 60.7026 56.263 61.314 55.8341 61.8363C55.3952 62.359 55.0442 62.842 55.0442 62.8914C55.0442 62.9704 56 63 58.0087 63H60.9732L61.8801 61.9056C62.3871 61.3042 62.8845 60.7029 62.9919 60.5846C63.2259 60.3184 63.3233 60.2001 65.0495 58.0704C65.7809 57.1732 66.8048 55.9309 67.3215 55.3098C67.8381 54.6886 68.4332 53.9592 68.638 53.6829C69.9642 51.9673 70.5689 51.6618 72.6654 51.6618C73.7867 51.6618 73.9623 51.6816 73.9623 51.8194C73.9623 51.9081 73.3383 52.7364 72.5776 53.6631C71.2026 55.3292 69.8375 57.0052 69.3109 57.666C69.155 57.8532 68.9694 58.0801 68.8917 58.1591C68.8135 58.2478 68.5895 58.5238 68.4139 58.7604C68.2287 59.0068 68.0043 59.273 67.9262 59.3618C67.8384 59.4407 67.6433 59.6871 67.4777 59.8942C67.3218 60.1012 66.7367 60.8111 66.1904 61.4716C65.6346 62.1321 65.1861 62.7533 65.1861 62.842C65.1861 62.9996 65.4494 63.0097 68.7746 62.9802L72.3632 62.9506L72.9483 62.5661C73.5042 62.2014 73.6308 62.0535 74.0793 61.2451C74.2452 60.9493 74.2548 60.5648 74.2352 54.3928L74.206 47.8659H71.5244C68.7258 47.8659 68.4525 47.8955 67.5751 48.3294C66.6682 48.7828 66.4049 49.0097 65.4494 50.1337C64.4254 51.3465 64.2014 51.5831 64.1329 51.5139C64.094 51.4745 64.0451 50.6463 64.0159 49.6605L63.967 47.8662L61.4802 47.8464C59.3445 47.8266 58.9057 47.8561 58.3401 48.004L58.3398 48.0037ZM76.2243 51.7404C76.1269 51.8093 76.1073 53.0022 76.1269 57.3897L76.1561 62.9502H77.4727C78.9159 62.9405 79.111 62.8911 79.6961 62.2995C80.3105 61.6881 80.3009 61.7768 80.3009 56.5416C80.3009 52.2923 80.2813 51.7696 80.145 51.7206C79.9206 51.6318 76.3713 51.6517 76.225 51.7404H76.2243ZM81.88 51.7404C81.7923 51.7996 81.763 52.0954 81.7826 52.8543L81.8119 53.8799L84.4935 53.9293C86.8925 53.9686 87.1751 53.9982 87.1751 54.1363C87.1751 54.2745 86.5996 54.9548 85.2734 56.3843C85.1953 56.4731 84.5809 57.1632 83.9084 57.9225C83.2358 58.6818 82.6114 59.3816 82.5041 59.4801C82.4067 59.5886 82.2211 59.9039 82.0945 60.19C81.88 60.6632 81.8604 60.8209 81.88 61.8363L81.9093 62.9502H92.0509V60.8797L89.3497 60.8501C87.2725 60.8303 86.6388 60.8007 86.6388 60.7022C86.6388 60.5936 87.3214 59.8148 89.7692 57.0741C92.0512 54.5303 92.0023 54.619 92.0023 52.8839C92.0023 51.967 91.9731 51.77 91.8464 51.7206C91.6124 51.6318 82.0267 51.6517 81.8804 51.7404H81.88ZM93.6015 51.7898C93.5818 51.8587 93.5722 54.0674 93.5818 56.6899L93.6111 61.4716L93.9037 61.9153C94.0696 62.1519 94.3914 62.4871 94.6154 62.6548L95.0446 62.9506L99.1013 62.9802C104.045 63.0195 104.25 63 104.806 62.5365C105.03 62.3493 105.294 62.073 105.381 61.9352C105.654 61.521 105.742 60.2196 105.723 57.104C105.713 54.8462 105.732 54.0869 105.82 54.0083C105.898 53.9491 106.503 53.9195 107.371 53.9491L108.794 53.9787L109.077 54.3138L109.36 54.659L109.38 58.7998L109.409 62.9506L111.311 62.9802C112.354 62.9899 113.31 62.9802 113.436 62.9506L113.651 62.9012V58.3167C113.651 54.9252 113.622 53.6237 113.534 53.3182C113.339 52.697 112.734 52.086 112.071 51.8591C111.544 51.6719 111.232 51.6618 106.639 51.6618C103.958 51.6618 101.705 51.6913 101.617 51.7209C101.481 51.7703 101.461 52.2335 101.461 55.8718C101.461 59.51 101.442 59.993 101.305 60.2394C101.023 60.7224 100.701 60.831 99.6282 60.831C98.7798 60.831 98.6239 60.8014 98.3313 60.6041C98.1461 60.476 97.951 60.2293 97.8828 60.0421C97.8047 59.7957 97.7658 58.5335 97.7658 55.7433C97.7562 52.2238 97.7366 51.77 97.5999 51.7209C97.5121 51.6913 96.5956 51.6618 95.552 51.6618C94.0892 51.6618 93.6407 51.6913 93.6018 51.7898H93.6015ZM116.703 51.8688C116.118 52.0957 115.679 52.49 115.406 53.052C115.221 53.4069 115.211 53.6533 115.211 57.39C115.211 61.1268 115.23 61.3731 115.377 61.6491C115.62 62.0928 115.981 62.4871 116.381 62.7338C116.722 62.9506 116.761 62.9506 121.452 62.9506C126.143 62.9506 126.191 62.9408 126.474 62.7634C126.923 62.4676 127.391 61.9153 127.518 61.5311C127.693 60.9987 127.742 54.2647 127.576 53.5058C127.41 52.727 126.874 52.1256 126.113 51.8594C125.587 51.6722 125.285 51.6621 121.384 51.6722C117.444 51.6722 117.181 51.6819 116.703 51.8695L116.703 51.8688ZM123.119 54.3239L123.402 54.659V57.3309C123.393 60.2098 123.383 60.2888 122.856 60.6434C122.622 60.801 122.397 60.8306 121.452 60.8306C120.506 60.8306 120.281 60.801 120.008 60.6333C119.453 60.2881 119.404 60.032 119.404 57.301V54.856L119.667 54.4419C119.979 53.9589 120.038 53.9488 121.637 53.9686L122.836 53.9783L123.119 54.3235V54.3239ZM129.585 60.6632C129.497 60.8999 129.594 62.2605 129.692 62.2605C129.75 62.2605 129.799 62.1422 129.819 61.9943C129.838 61.8562 129.906 61.6787 129.984 61.6195C130.092 61.5308 130.092 61.4619 129.955 61.2152C129.809 60.9587 129.809 60.9096 129.936 60.8306C130.14 60.6925 130.355 60.7123 130.579 60.8699C130.764 61.0081 130.764 61.0178 130.55 61.2249C130.277 61.4814 130.267 61.5798 130.521 61.718C130.628 61.7772 130.716 61.9052 130.716 62.0138C130.716 62.2306 130.872 62.359 130.96 62.2111C130.998 62.1519 130.96 61.9943 130.872 61.8659C130.677 61.5701 130.677 61.3533 130.862 61.1657C131.048 60.9782 131.047 60.8797 130.853 60.6925C130.657 60.4854 129.663 60.4757 129.585 60.6629L129.585 60.6632Z" fill="#100E20"/>
</svg>
