<svg width="176" height="88" viewBox="0 0 176 88" fill="none" xmlns="http://www.w3.org/2000/svg">
<g clip-path="url(#clip0_10955_57294)">
<path d="M50.1944 29.313C49.8385 29.7803 49.6486 30.3056 49.4217 30.8138C49.1996 31.3124 48.9841 31.8149 48.7658 32.3155C48.5408 32.8303 48.3159 33.3442 48.0918 33.859C47.8678 34.3738 47.6457 34.8896 47.4217 35.4044C47.1976 35.9192 46.9708 36.4331 46.7467 36.9469C46.5284 37.4475 46.3101 37.9481 46.0917 38.4496C45.8677 38.9644 45.6437 39.4792 45.4235 39.9855C45.0808 40.052 44.1666 40.0653 43.4708 40.014C43.4025 39.8706 43.3228 39.711 43.2497 39.5476C41.7944 36.3086 40.3402 33.0697 38.8831 29.8316C38.8176 29.6863 38.7805 29.5182 38.6135 29.3823C38.4521 29.9057 38.4398 30.4224 38.3515 30.9249C38.2651 31.4179 38.211 31.9165 38.1407 32.4124C38.0677 32.9234 37.9908 33.4334 37.9158 33.9435C37.8436 34.4393 37.7715 34.9342 37.7012 35.43C37.6291 35.941 37.5608 36.4521 37.4867 36.9631C37.4146 37.4589 37.3358 37.9528 37.2636 38.4486C37.1886 38.9587 37.1174 39.4688 37.0444 39.9874C36.7045 40.09 36.3694 40.0263 36.041 40.0368C35.6926 40.0482 35.3423 40.0415 34.994 40.0387C34.6636 40.0368 34.3323 40.052 34.0029 40.0244C34.0409 39.5096 36.7254 22.4798 36.8555 22.059C37.182 21.9973 38.2176 21.9821 38.8821 22.0334C39.5324 23.4325 40.1617 24.862 40.8044 26.2839C41.448 27.7087 42.0878 29.1344 42.7304 30.5592C43.3721 31.9821 44.0148 33.404 44.6536 34.8202C44.8444 34.7965 44.8501 34.6502 44.8947 34.5505C45.3807 33.4543 45.8611 32.3563 46.3423 31.2583C47.6276 28.3261 48.9129 25.3939 50.1992 22.4618C50.2599 22.3231 50.3264 22.1873 50.3862 22.0581C50.7412 21.9973 51.9876 21.9887 52.4451 22.0429C52.4689 22.1094 52.5059 22.1778 52.5173 22.2509C53.4456 28.1551 54.3712 34.0603 55.3005 39.9798C55.217 40.0035 55.1619 40.033 55.1078 40.033C54.0152 40.0349 52.9217 40.033 51.8291 40.033C51.7996 40.033 51.7702 40.0206 51.7132 40.0073C51.6933 39.9371 51.6591 39.8554 51.6468 39.7708C51.4313 38.2226 51.2187 36.6743 51.0032 35.1261C50.8048 33.6985 50.6026 32.2708 50.4042 30.8432C50.333 30.3331 50.2647 29.8231 50.1954 29.313H50.1944Z" fill="black"/>
<path d="M91.7919 56.4699C91.7719 58.4076 91.4701 60.16 90.7202 61.8194C90.4002 62.528 90.0016 63.1891 89.5117 63.7942C88.3964 65.1752 86.9649 66.0785 85.2581 66.5269C83.3311 67.0331 81.387 67.0616 79.4505 66.5687C76.841 65.9047 74.99 64.3251 73.8727 61.8802C73.3696 60.7803 73.0962 59.6186 72.9586 58.4199C72.8665 57.6173 72.8494 56.8137 72.8883 56.0102C72.9652 54.404 73.2775 52.8472 73.9847 51.392C75.2643 48.759 77.3688 47.2108 80.2384 46.6921C81.8427 46.4024 83.4441 46.4366 85.0236 46.8375C87.9986 47.5916 90.0006 49.442 91.0695 52.3076C91.4539 53.3373 91.6618 54.4078 91.733 55.5048C91.7567 55.8686 91.7767 56.2315 91.7909 56.4689L91.7919 56.4699ZM87.6417 56.2685C87.6493 55.6293 87.5354 54.5445 87.2724 53.4779C87.0674 52.6477 86.7617 51.8574 86.2852 51.1412C85.6169 50.1382 84.7123 49.4685 83.5295 49.194C83.0995 49.0943 82.6628 49.0497 82.2195 49.0573C80.6533 49.0829 79.4088 49.7212 78.5022 51.0035C78.1491 51.5031 77.8862 52.0483 77.6802 52.622C77.2654 53.778 77.0878 54.9767 77.0736 56.1973C77.066 56.8945 77.104 57.5945 77.1647 58.2888C77.2407 59.1522 77.4106 60.0014 77.6954 60.823C77.9517 61.5601 78.2963 62.2497 78.8089 62.8453C79.4012 63.5339 80.135 63.9927 81.0187 64.2083C81.7193 64.3793 82.4236 64.4106 83.1413 64.3118C84.5376 64.119 85.6065 63.4313 86.365 62.2488C86.7371 61.6684 86.9943 61.0377 87.1794 60.3766C87.5154 59.1836 87.6322 57.963 87.6408 56.2685H87.6417Z" fill="black"/>
<path d="M114.649 56.5507C114.626 58.5986 114.274 60.5249 113.336 62.3116C112.016 64.8268 109.922 66.2677 107.138 66.7407C105.948 66.943 104.753 66.9677 103.557 66.8138C102.605 66.6913 101.682 66.451 100.807 66.0483C98.9331 65.1849 97.6041 63.7848 96.7507 61.9202C96.2533 60.8355 95.9723 59.6909 95.829 58.5084C95.7208 57.6155 95.7094 56.7208 95.7606 55.826C95.847 54.3138 96.1565 52.8501 96.8086 51.4728C97.9411 49.0792 99.777 47.5186 102.348 46.8604C104.393 46.337 106.443 46.3693 108.457 47.001C111.072 47.8197 112.849 49.5608 113.853 52.0988C114.291 53.2082 114.522 54.3661 114.601 55.5543C114.623 55.9029 114.636 56.2515 114.651 56.5507H114.649ZM110.505 56.8347C110.502 55.655 110.403 54.5675 110.139 53.5008C109.907 52.5652 109.557 51.6799 108.975 50.9001C108.314 50.0139 107.45 49.4345 106.37 49.1866C105.923 49.0849 105.472 49.0422 105.014 49.0555C103.559 49.0963 102.374 49.6719 101.485 50.8336C101.084 51.356 100.791 51.9373 100.564 52.5538C100.161 53.648 99.9877 54.785 99.9364 55.9428C99.9004 56.7635 99.9431 57.5832 100.034 58.3991C100.127 59.2303 100.286 60.049 100.564 60.8412C100.817 61.5631 101.155 62.2384 101.655 62.8254C102.243 63.5179 102.975 63.9814 103.857 64.2018C104.556 64.3765 105.261 64.4098 105.979 64.3148C107.451 64.1191 108.55 63.3754 109.311 62.114C109.651 61.5517 109.886 60.9438 110.06 60.3121C110.382 59.1476 110.485 57.9546 110.506 56.8357L110.505 56.8347Z" fill="black"/>
<path d="M87.8657 31.5422C88.1941 32.1026 88.5226 32.6649 88.852 33.2263C89.1823 33.7886 89.5136 34.3509 89.8439 34.9141C90.1743 35.4764 90.5046 36.0397 90.835 36.602C91.1653 37.1643 91.4976 37.7266 91.8269 38.2889C92.1535 38.8475 92.4905 39.4012 92.8056 39.9645C92.7458 40.0015 92.7221 40.0291 92.6984 40.0291C91.4093 40.031 90.1202 40.031 88.8017 40.031C88.7172 39.898 88.626 39.7612 88.5425 39.6206C87.1889 37.3362 85.8362 35.0509 84.4825 32.7656C84.3905 32.6098 84.2946 32.4569 84.1987 32.3011C83.838 32.2698 83.4915 32.2432 83.146 32.2099C82.8023 32.1767 82.4597 32.1368 82.1236 32.0997C82.0202 32.284 82.0591 32.454 82.0581 32.6174C82.0553 34.9094 82.0562 37.2023 82.0553 39.4943C82.0553 39.6577 82.0439 39.822 82.0382 39.9664C81.9831 39.9968 81.9575 40.0224 81.9319 40.0224C80.8393 40.0281 79.7467 40.0319 78.655 40.0348C78.5971 40.0348 78.5392 40.0186 78.4557 40.0063C78.4452 39.9103 78.431 39.8239 78.4282 39.7375C78.4234 39.6159 78.4263 39.4943 78.4263 39.3727C78.4263 33.8009 78.4263 28.2301 78.4263 22.6582C78.4263 22.4626 78.4301 22.2679 78.4329 22.0532C78.5449 22.0361 78.6313 22.0105 78.7167 22.0105C81.0082 22.0105 83.3007 22.0038 85.5922 22.0171C86.2444 22.0209 86.8937 22.0959 87.5287 22.2622C89.3332 22.7342 90.4334 23.8855 90.8226 25.7063C91.0533 26.7882 90.9755 27.852 90.5274 28.8722C90.0775 29.8961 89.3266 30.6474 88.3678 31.2021C88.2236 31.2857 88.0783 31.3674 87.935 31.451C87.9226 31.4576 87.916 31.4738 87.8638 31.5422H87.8657ZM82.1027 30.8222C82.9058 30.8659 83.6548 30.7832 84.3943 30.5999C84.9439 30.4641 85.4593 30.2494 85.9216 29.9179C86.5073 29.4972 86.9193 28.951 87.1158 28.2491C87.2449 27.7893 87.2658 27.3249 87.2012 26.8518C87.0759 25.9381 86.6079 25.2789 85.7716 24.8837C85.3843 24.7004 84.9752 24.5978 84.5528 24.5361C83.7981 24.4259 83.0387 24.4668 82.2812 24.4668C82.2242 24.4668 82.1673 24.4905 82.1132 24.5019C82.0932 24.5598 82.0676 24.6016 82.0676 24.6425C82.0648 26.6305 82.0638 28.6185 82.0638 30.6066C82.0638 30.6636 82.0847 30.7215 82.1037 30.8231L82.1027 30.8222Z" fill="black"/>
<path d="M55.2359 66.9695C55.2274 66.8479 55.215 66.7453 55.2131 66.6428C55.1495 62.8092 55.1818 47.2573 55.2568 46.7197C55.364 46.7083 55.4799 46.6855 55.5957 46.6845C56.3237 46.6807 57.0528 46.6826 57.7809 46.6826C59.4952 46.6826 61.2105 46.6864 62.9249 46.6817C63.9017 46.6788 64.8633 46.7805 65.7992 47.0702C66.5605 47.3067 67.263 47.6562 67.8677 48.1834C68.8293 49.0193 69.3523 50.0831 69.4995 51.3407C69.5925 52.1348 69.5355 52.9175 69.3039 53.683C69.0011 54.6842 68.4287 55.5096 67.6408 56.1897C66.739 56.9676 65.6901 57.4663 64.5529 57.7854C63.2087 58.1625 61.8408 58.2765 60.4521 58.1055C60.1663 58.0704 59.8797 58.0371 59.593 58.0067C59.5199 57.9991 59.4449 58.0058 59.3775 58.0058C59.2693 58.1958 59.3101 58.3819 59.3101 58.5605C59.3073 61.1716 59.3082 63.7818 59.3082 66.3929C59.3082 66.5734 59.3082 66.7548 59.3082 66.9439C59.2256 66.9686 59.1706 66.9999 59.1146 66.9999C57.8701 67.0018 56.6256 67.0008 55.3811 66.9999C55.3517 66.9999 55.3213 66.9885 55.2349 66.9705L55.2359 66.9695ZM59.3348 56.6238C60.2879 56.6845 61.1735 56.6086 62.0459 56.3787C62.6515 56.2191 63.2277 55.995 63.7517 55.6473C64.7019 55.0176 65.2278 54.1437 65.2658 52.9934C65.317 51.4556 64.5719 50.4108 63.3587 49.8627C62.7559 49.5901 62.1209 49.4496 61.464 49.4296C60.8422 49.4106 60.2195 49.422 59.5977 49.4249C59.5133 49.4249 59.4288 49.4534 59.3538 49.4667C59.2873 49.9169 59.2664 53.1701 59.3092 56.2277C59.3111 56.3464 59.3244 56.4642 59.3348 56.6238Z" fill="black"/>
<path d="M50.0643 51.2684C49.7122 51.3558 49.3771 51.4384 49.0325 51.5239C48.9879 51.4574 48.947 51.4128 48.9252 51.3596C48.3784 50.0222 47.3627 49.2253 46.0006 48.8406C44.6621 48.4625 43.3312 48.5043 42.0156 48.9603C41.6397 49.0904 41.2941 49.2775 40.9771 49.5178C39.9016 50.3337 39.8085 51.6455 40.1066 52.507C40.2499 52.9211 40.5138 53.2498 40.8603 53.5129C41.1888 53.7636 41.5561 53.9432 41.9406 54.0894C42.6098 54.3449 43.3085 54.4855 44.0081 54.6251C44.9621 54.8161 45.8961 55.0754 46.7951 55.4534C47.413 55.7137 47.9987 56.03 48.5322 56.4394C49.7682 57.3873 50.3985 58.6468 50.4526 60.1979C50.5086 61.8136 50.0434 63.2545 48.986 64.4874C48.2152 65.386 47.2384 65.9787 46.1296 66.371C45.206 66.6977 44.2482 66.8497 43.2752 66.9C42.1171 66.9599 40.9685 66.8782 39.8475 66.5562C39.5855 66.4811 39.3254 66.3947 39.0738 66.2893C36.9731 65.4154 35.7856 63.8273 35.422 61.5989C35.3983 61.4517 35.384 61.3035 35.3632 61.1354C35.6954 60.9796 36.0248 60.8732 36.3494 60.7669C36.5032 60.8296 36.5213 60.9806 36.5792 61.0974C36.8696 61.6873 37.2285 62.2296 37.6831 62.7064C38.6191 63.6876 39.7763 64.2433 41.1024 64.4665C41.857 64.5938 42.6126 64.608 43.3683 64.4703C43.9416 64.3658 44.4827 64.1768 44.9697 63.8501C45.7822 63.3049 46.2929 62.5592 46.4087 61.579C46.5293 60.5512 46.2027 59.6935 45.3551 59.0647C44.9735 58.7807 44.5425 58.5936 44.0944 58.4435C43.43 58.2213 42.7408 58.1092 42.0535 57.9876C41.109 57.8195 40.1892 57.5687 39.314 57.1698C38.8982 56.9808 38.5024 56.7576 38.1312 56.4916C36.881 55.594 36.2061 54.3706 36.0893 52.8423C36.0144 51.8573 36.1691 50.9017 36.5497 49.9908C37.1478 48.5585 38.1948 47.5744 39.6111 46.9665C40.4132 46.6227 41.2552 46.4356 42.119 46.3406C42.9971 46.2446 43.8752 46.2275 44.7551 46.3282C45.5591 46.4204 46.3423 46.5913 47.0827 46.9219C48.6851 47.6352 49.6429 48.8672 49.995 50.5788C50.0283 50.7422 50.0529 50.9074 50.0776 51.0727C50.0843 51.1164 50.0729 51.162 50.0653 51.2674L50.0643 51.2684Z" fill="black"/>
<path d="M120.768 22.0265C120.824 22.6097 120.811 24.0563 120.749 24.4144C120.598 24.4733 120.43 24.4458 120.268 24.4458C118.082 24.4477 115.896 24.4458 113.71 24.4486C113.547 24.4486 113.378 24.4163 113.214 24.4914C113.198 24.5331 113.167 24.574 113.167 24.6148C113.163 26.1631 113.162 27.7113 113.162 29.2605C113.162 29.3175 113.188 29.3745 113.204 29.4448C113.651 29.5104 114.089 29.4686 114.526 29.4762C114.966 29.4838 115.406 29.4781 115.846 29.4781H117.166C117.607 29.4781 118.046 29.4781 118.487 29.4781C118.924 29.4781 119.363 29.48 119.815 29.4809C119.914 29.8969 119.853 30.2902 119.863 30.6787C119.874 31.071 119.866 31.4642 119.866 31.8565C119.687 31.9629 119.517 31.9277 119.355 31.9287C117.974 31.9315 116.593 31.9306 115.212 31.9306C114.68 31.9306 114.15 31.9287 113.618 31.9315C113.485 31.9315 113.351 31.9467 113.199 31.9562C113.183 32.0645 113.159 32.1519 113.159 32.2383C113.156 33.9081 113.156 35.578 113.159 37.2488C113.159 37.3504 113.182 37.453 113.195 37.5527C113.391 37.6268 113.574 37.5983 113.754 37.5983C116.273 37.6002 118.793 37.5993 121.313 37.6002C121.476 37.6002 121.639 37.6097 121.795 37.6154C121.823 37.6876 121.852 37.7294 121.852 37.7712C121.856 38.4541 121.858 39.1371 121.856 39.821C121.856 39.8789 121.834 39.9359 121.818 40.0157C121.674 40.0242 121.542 40.0375 121.409 40.0385C116.682 40.0736 109.895 40.047 109.581 39.9929C109.571 39.9815 109.56 39.9701 109.552 39.9577C109.546 39.9454 109.538 39.9302 109.538 39.9159C109.533 34.101 109.529 28.2869 109.525 22.472C109.525 22.3656 109.53 22.2602 109.536 22.1538C109.538 22.1262 109.557 22.0987 109.582 22.0388C109.682 22.0303 109.797 22.0104 109.913 22.0104C110.808 22.0075 111.704 22.0085 112.6 22.0085C115.149 22.0085 117.7 22.0085 120.25 22.0085C120.414 22.0085 120.577 22.0189 120.767 22.0256L120.768 22.0265Z" fill="black"/>
<path d="M70.0813 36.0623H62.6695C62.5109 36.1734 62.4749 36.3454 62.4075 36.4935C61.9442 37.5165 61.4876 38.5414 61.0273 39.5653C60.9589 39.7164 60.8868 39.8664 60.8222 40.0061C60.3305 40.0583 58.058 40.0488 57.701 39.9918C57.7172 39.9339 57.7248 39.875 57.7495 39.8237C60.5688 33.8928 63.39 27.9629 66.2131 22.0273H67.411C67.4272 22.0349 67.4423 22.0387 67.4528 22.0473C67.4642 22.0568 67.4737 22.0701 67.4803 22.0834C70.18 27.9544 72.8787 33.8254 75.5775 39.6974C75.6088 39.7658 75.6354 39.837 75.6629 39.9082C75.6677 39.9215 75.6696 39.9377 75.6677 39.9519C75.6658 39.9671 75.6591 39.9804 75.6544 39.9956C75.3107 40.0488 72.3785 40.0593 71.8583 40.0042C71.2754 38.7114 70.685 37.4006 70.0822 36.0632L70.0813 36.0623ZM63.7564 33.6573C64.1769 33.719 64.6003 33.6772 65.0217 33.6839C65.4612 33.6915 65.9007 33.6858 66.3412 33.6858C66.7817 33.6858 67.1908 33.6934 67.6151 33.6839C68.0461 33.6744 68.4808 33.7266 68.9479 33.6421C68.8776 33.4721 68.8264 33.3324 68.7647 33.1976C68.2663 32.109 67.766 31.0215 67.2667 29.9329C66.9886 29.3269 66.7114 28.7209 66.4304 28.1159C66.3963 28.0408 66.383 27.9325 66.2225 27.9591C65.4052 29.7981 64.5813 31.6522 63.7592 33.5082C63.7431 33.5452 63.7573 33.5955 63.7573 33.6582L63.7564 33.6573Z" fill="black"/>
<path d="M99.1182 37.4871C99.3081 37.5459 99.4894 37.5269 99.6678 37.5269C101.991 37.5279 104.314 37.5269 106.636 37.5298C106.815 37.5298 107.001 37.4899 107.167 37.5877C107.229 38.0104 107.222 39.6328 107.153 40.0127C107.073 40.0203 106.986 40.0336 106.898 40.0364C104.706 40.0906 95.9097 40.0611 95.4674 39.9984C95.4531 39.9595 95.4237 39.9187 95.4237 39.8769C95.419 34.0154 95.4171 28.1538 95.4152 22.2923C95.4152 22.2182 95.4313 22.1451 95.436 22.1062C95.4683 22.0615 95.475 22.0454 95.4864 22.0378C95.4977 22.0292 95.5148 22.0254 95.53 22.0254C96.5467 22.0197 97.5633 22.014 98.58 22.0093C98.7015 22.0093 98.8221 22.014 98.9436 22.0207C98.9701 22.0226 98.9967 22.0435 99.0394 22.0644C99.1078 22.2106 99.0784 22.3797 99.0793 22.5431C99.0822 23.8947 99.0812 25.2464 99.0812 26.598C99.0812 30.045 99.0812 33.492 99.0812 36.939C99.0812 37.1176 99.0632 37.299 99.1173 37.4871H99.1182Z" fill="black"/>
<path d="M119.639 47.478C117.816 47.0297 116.152 46.3553 114.666 45.2867C114.273 45.0036 113.897 44.6987 113.571 44.3093C113.716 44.0614 113.89 43.8591 114.089 43.6501C114.201 43.7175 114.304 43.7745 114.402 43.8401C115.954 44.8744 117.655 45.5222 119.498 45.8063C120.524 45.9649 121.551 46.0067 122.583 45.8746C123.636 45.7407 124.616 45.3921 125.528 44.8507C126.277 44.4062 126.943 43.8581 127.551 43.236C128.126 42.648 128.649 42.0154 129.104 41.3325C129.627 40.5498 130.13 39.7538 130.641 38.9635C130.691 38.8876 130.735 38.8078 130.78 38.728C131.127 38.1172 131.066 38.2436 130.858 37.723C128.832 32.6661 126.802 27.61 124.777 22.553C124.711 22.3887 124.599 22.2329 124.625 22.0221H128.16C128.473 22.8237 128.787 23.6282 129.101 24.4318C129.417 25.2373 129.733 26.0428 130.048 26.8482C130.357 27.6395 130.667 28.4307 130.976 29.2229C131.29 30.0283 131.601 30.8357 131.919 31.6402C132.234 32.439 132.533 33.2455 132.879 34.069C133.046 33.9664 133.08 33.8315 133.136 33.7156C133.706 32.5245 134.275 31.3334 134.844 30.1414C136.06 27.5939 137.276 25.0464 138.493 22.4989C138.564 22.3488 138.642 22.2016 138.722 22.0411C139.084 21.9698 139.447 22.0135 139.807 22.0059C140.172 21.9983 140.536 22.004 140.901 22.004H141.982C142.043 22.2016 141.928 22.3241 141.866 22.4552C141.037 24.2115 140.208 25.9687 139.37 27.7211C137.791 31.0209 136.212 34.3207 134.55 37.5787C133.881 38.8914 133.161 40.1756 132.371 41.4189C131.857 42.2272 131.3 43.0042 130.676 43.7318C129.042 45.6381 127.003 46.8767 124.56 47.4523C124.427 47.4837 124.293 47.5065 124.16 47.535C124.027 47.5635 123.894 47.5939 123.761 47.6243C123.732 47.7971 123.87 47.8712 123.955 47.9672C124.89 49.0253 125.828 50.0806 126.766 51.1358C128.885 53.519 131.002 55.9031 133.124 58.2844C133.227 58.4012 133.304 58.5618 133.514 58.614C133.573 58.387 133.54 58.1771 133.546 57.9719C133.552 57.7591 133.547 57.5464 133.547 57.3346V47.6756C133.547 47.4647 133.547 47.2529 133.547 47.0316C133.627 47.0078 133.682 46.9765 133.737 46.9765C134.618 46.9736 135.498 46.9736 136.379 46.9765C136.421 46.9765 136.464 46.9964 136.534 47.0145C136.544 47.099 136.557 47.1845 136.561 47.2719C136.566 47.3631 136.563 47.4542 136.563 47.5454C136.563 53.6501 136.563 59.7557 136.562 65.8604C136.562 66.039 136.586 66.2213 136.531 66.3809C136.482 66.4056 136.456 66.4284 136.43 66.4303C135.92 66.4588 135.493 66.2821 135.151 65.9003C131.139 61.4218 127.127 56.9423 123.115 52.4637C123.015 52.3517 122.909 52.2453 122.775 52.1018C122.742 52.1892 122.71 52.2377 122.707 52.288C122.7 52.439 122.703 52.592 122.703 52.743C122.703 57.0259 122.703 61.3087 122.703 65.5906C122.703 65.7702 122.696 65.9497 122.692 66.152C122.17 66.2251 121.673 66.1843 121.177 66.1852C120.681 66.1862 120.183 66.2194 119.665 66.1577C119.615 65.5175 119.647 64.8982 119.641 64.2789C119.635 63.6567 119.64 63.0336 119.64 62.4115V47.4751L119.639 47.478Z" fill="black"/>
</g>
<defs>
<clipPath id="clip0_10955_57294">
<rect width="108" height="45" fill="white" transform="translate(34 22)"/>
</clipPath>
</defs>
</svg>
